<svg width="87" height="87" viewBox="0 0 87 87" fill="none" xmlns="http://www.w3.org/2000/svg">
<path d="M56.3661 25.6689L51.5065 22.9952C47.2408 20.6481 45.1079 19.4746 42.8135 19.4746C40.519 19.4746 38.3861 20.6481 34.1204 22.9952L29.2608 25.6689C24.9509 28.0402 22.4175 29.4341 20.8474 31.2984L42.8135 42.8136L64.7796 31.2984C63.2094 29.4341 60.6761 28.0402 56.3661 25.6689Z" fill="white"/>
<path d="M68.2634 33.2031L45.5592 44.724V68.898C47.3706 68.4402 49.4317 67.3424 52.6939 65.605L57.7401 62.9176C63.1692 60.0261 65.8835 58.5806 67.3909 55.9828C68.8982 53.385 68.8982 50.1521 68.8982 43.6869V43.3873C68.8982 38.541 68.8982 35.5109 68.2634 33.2031Z" fill="white"/>
<path d="M42.8134 68.898V44.724L20.1093 33.2031C19.4744 35.5109 19.4744 38.541 19.4744 43.3873V43.6869C19.4744 50.1521 19.4744 53.385 20.9817 55.9828C22.489 58.5806 25.2035 60.0261 30.6325 62.9176L35.6787 65.605C38.941 67.3424 41.0021 68.4402 42.8134 68.898Z" fill="white"/>
<path d="M14.8622 14.8621L72.138 72.138M84 43.5C84 65.8677 65.8677 84 43.5 84C21.1325 84 3 65.8677 3 43.5C3 21.1325 21.1325 3 43.5 3C65.8677 3 84 21.1325 84 43.5Z" stroke="white" stroke-width="5" stroke-linecap="round" stroke-linejoin="round"/>
</svg>
