<svg width="191" height="102" viewBox="0 0 191 102" fill="none" xmlns="http://www.w3.org/2000/svg">
<path d="M1 24.6351V24.5C1 11.5885 10.5436 1 24.0592 1C37.5748 1 37.3882 3.91724 41.6801 8.07701L36.6151 13.9925C32.9629 10.6161 29.1775 8.40115 24.0058 8.40115C15.5553 8.40115 9.26398 15.4782 9.26398 24.3649V24.5C9.26398 33.3868 15.4753 40.5989 24.0592 40.5989C32.643 40.5989 33.0962 38.3839 36.935 34.7644L42 39.9506C37.4415 44.9477 32.1365 48 23.8192 48C10.7568 48 1.02666 37.6816 1.02666 24.6351H1Z" fill="#037C44"/>
<path d="M46 34.794V13H53.8993V32.4715C53.8993 37.8457 56.5867 40.7894 61.2828 40.7894C65.979 40.7894 69.0464 37.7377 69.0464 32.3634V13.027H77V47.2978H69.0464V41.9776C66.7662 45.2994 63.563 48 58.2969 48C50.479 48 46.0271 42.8688 46.0271 34.821L46 34.794Z" fill="#037C44"/>
<path d="M83 0H92V7.45517H83V0ZM83.2596 12.7224H91.7115V47H83.2596V12.7224Z" fill="#037C44"/>
<path fill-rule="evenodd" clip-rule="evenodd" d="M96 30.1044C96 18.7041 103.848 12.3706 112.162 12.3706C120.476 12.3706 121.601 15.1465 124.015 18.3807V0H132V47.2723H124.015V41.5856C121.436 45.1432 117.759 48 112.162 48C103.985 48 96 41.6665 96 30.2661V30.1044ZM124.152 30.2392V30.1044C124.152 23.5014 119.405 19.1623 114.055 19.1623C108.704 19.1623 104.04 23.3666 104.04 30.1044V30.2392C104.04 36.8422 108.595 41.1814 114.055 41.1814C119.515 41.1814 124.152 36.7883 124.152 30.2392Z" fill="#037C44"/>
<path fill-rule="evenodd" clip-rule="evenodd" d="M136.027 37.516V37.3826C136.027 30.0198 141.855 26.4985 150.218 26.4985C158.582 26.4985 156.775 27.0854 159.419 27.9123V27.0854C159.419 22.2035 156.424 19.7226 150.92 19.7226C145.416 19.7226 144.256 20.5495 141.126 21.83L138.995 15.7477C142.826 14.1471 146.522 13 151.972 13C157.422 13 160.849 14.2805 163.304 16.7881C165.84 19.2957 167 22.8171 167 27.2454V47.3064H159.338V43.0648C156.99 45.8125 153.429 48 148.195 48C142.961 48 136 44.3986 136 37.5427L136.027 37.516ZM159.554 32.7675C157.557 31.9939 154.886 31.4337 151.783 31.4337C146.657 31.4337 143.743 33.4878 143.743 37.0625V37.1959C143.743 40.4771 146.603 42.3178 150.407 42.3178C154.211 42.3178 159.554 39.4367 159.554 35.0617V32.7675Z" fill="#037C44"/>
<path d="M166.028 12.6642H174.31V20.4026C176.542 15.2076 180.697 11.7442 187 12.0148V20.3485H186.52C179.256 20.3485 174.281 24.84 174.281 33.9313V47H166V12.6642H166.028Z" fill="#037C44"/>
<path d="M0 53H18.2067L27.6492 80.3097L37.0918 53H55L35.2738 102H19.7262L0 53Z" fill="#153722"/>
<path fill-rule="evenodd" clip-rule="evenodd" d="M46.027 82.6997V82.5666C46.027 71.4655 54.1126 63 65.4057 63C76.6987 63 85 72.2109 85 83.5249C85 94.8389 85 85.3085 84.9191 86.1072H60.689C61.7941 89.3816 64.4084 91.0853 67.8044 91.0853C71.2004 91.0853 72.9793 89.7809 75.4589 87.2785L83.868 93.8805C80.0677 98.7256 74.8929 102 66.6994 102C54.2744 102 46 94.3065 46 82.7263L46.027 82.6997ZM70.7422 79.2922C70.3918 75.7515 68.2626 73.7017 65.4865 73.7017C62.7104 73.7017 61.0124 75.8048 60.5273 79.2922H70.7422Z" fill="#153722"/>
<path d="M85 63.5507H100.394V71.1049C102.488 66.0956 105.826 62.7471 112 63.015V79.543H110.384C103.866 79.543 100.421 83.1861 100.421 91.4636V101H85.0265V63.5507H85Z" fill="#153722"/>
<path fill-rule="evenodd" clip-rule="evenodd" d="M109.028 82.6404V82.5063C109.028 70.6278 116.434 62.7445 125.438 62.7445C134.442 62.7445 134.524 65.2114 137.003 67.8927V51H153V101.115H137.003V96.5032C134.387 99.2382 131.441 102 125.576 102C116.269 102 109 94.1167 109 82.6404H109.028ZM137.36 82.4259V82.2918C137.36 78.5915 134.607 75.5615 130.945 75.5615C127.283 75.5615 124.529 78.4574 124.529 82.2918V82.4259C124.529 86.2603 127.283 89.1562 130.945 89.1562C134.607 89.1562 137.36 86.2603 137.36 82.4259Z" fill="#153722"/>
<path fill-rule="evenodd" clip-rule="evenodd" d="M152.027 82.6997V82.5666C152.027 71.4655 160.113 63 171.406 63C182.699 63 191 72.2109 191 83.5249C191 94.8389 191 85.3085 190.919 86.1072H166.689C167.794 89.3816 170.408 91.0853 173.804 91.0853C177.2 91.0853 178.979 89.7809 181.459 87.2785L189.868 93.8805C186.068 98.7256 180.893 102 172.699 102C160.274 102 152 94.3065 152 82.7263L152.027 82.6997ZM176.742 79.2922C176.392 75.7515 174.263 73.7017 171.487 73.7017C168.71 73.7017 167.012 75.8048 166.527 79.2922H176.742Z" fill="#153722"/>
</svg>
