<svg width="130" height="18" viewBox="0 0 130 18" fill="none" xmlns="http://www.w3.org/2000/svg">
<path d="M0 9.28321V9.23784C0 4.90063 3.20586 1.34375 7.74601 1.34375C12.2862 1.34375 12.2235 2.32371 13.6652 3.72105L11.9638 5.70819C10.737 4.57398 9.46536 3.82994 7.7281 3.82994C4.88939 3.82994 2.77603 6.20724 2.77603 9.19248V9.23784C2.77603 12.2231 4.86253 14.6458 7.74601 14.6458C10.6295 14.6458 10.7817 13.9017 12.0712 12.6858L13.7727 14.428C12.2414 16.1066 10.4594 17.1319 7.66542 17.1319C3.2775 17.1319 0.00895411 13.6658 0.00895411 9.28321H0Z" fill="#037C44"/>
<path d="M15.1162 12.6955V5.37451H17.7697V11.9153C17.7697 13.7206 18.6725 14.7095 20.25 14.7095C21.8275 14.7095 22.8579 13.6844 22.8579 11.8791V5.38358H25.5297V16.8958H22.8579V15.1086C22.092 16.2245 21.016 17.1317 19.247 17.1317C16.6208 17.1317 15.1253 15.408 15.1253 12.7046L15.1162 12.6955Z" fill="#037C44"/>
<path d="M27.5449 1.00769H30.5682V3.51202H27.5449V1.00769ZM27.6321 5.28139H30.4713V16.7959H27.6321V5.28139Z" fill="#037C44"/>
<path fill-rule="evenodd" clip-rule="evenodd" d="M31.9121 11.1203C31.9121 7.29075 34.5483 5.1632 37.3411 5.1632C40.1339 5.1632 40.5118 6.0957 41.323 7.18211V1.00769H44.0052V16.8874H41.323V14.9771C40.4565 16.1721 39.2214 17.1318 37.3411 17.1318C34.5943 17.1318 31.9121 15.0043 31.9121 11.1747V11.1203ZM41.369 11.1656V11.1203C41.369 8.90226 39.7745 7.44466 37.9771 7.44466C36.1797 7.44466 34.6128 8.85699 34.6128 11.1203V11.1656C34.6128 13.3837 36.1428 14.8413 37.9771 14.8413C39.8113 14.8413 41.369 13.3656 41.369 11.1656Z" fill="#037C44"/>
<path fill-rule="evenodd" clip-rule="evenodd" d="M45.3582 13.6099V13.5651C45.3582 11.0918 47.3158 9.90891 50.1254 9.90891C52.9349 9.90891 52.3277 10.1061 53.2159 10.3839V10.1061C53.2159 8.46614 52.2099 7.63275 50.361 7.63275C48.5121 7.63275 48.1224 7.91055 47.0711 8.34069L46.3551 6.29752C47.6421 5.75984 48.8837 5.37451 50.7145 5.37451C52.5452 5.37451 53.6962 5.80465 54.521 6.64701C55.3729 7.48937 55.7626 8.67225 55.7626 10.1598V16.8987H53.1887V15.4738C52.4002 16.3969 51.2039 17.1317 49.4456 17.1317C47.6874 17.1317 45.3491 15.9219 45.3491 13.6189L45.3582 13.6099ZM53.2612 12.0148C52.5905 11.7549 51.6933 11.5667 50.651 11.5667C48.929 11.5667 47.9502 12.2568 47.9502 13.4576V13.5024C47.9502 14.6046 48.9109 15.2229 50.1888 15.2229C51.4667 15.2229 53.2612 14.2551 53.2612 12.7855V12.0148Z" fill="#037C44"/>
<path d="M58.0095 5.22311H60.7913V7.82259C61.5414 6.07748 62.9371 4.91408 65.0543 5.00497V7.80441H64.8929C62.4528 7.80441 60.7818 9.3132 60.7818 12.3671V16.7572H58V5.22311H58.0095Z" fill="#037C44"/>
<path d="M65.8398 0.671875H71.9558L75.1277 9.84572L78.2997 0.671875H84.3154L77.689 17.1319H72.4662L65.8398 0.671875Z" fill="#153722"/>
<path fill-rule="evenodd" clip-rule="evenodd" d="M81.3015 10.6486V10.6039C81.3015 6.87486 84.0177 4.03113 87.8112 4.03113C91.6048 4.03113 94.3933 7.12525 94.3933 10.9258C94.3933 14.7264 94.3933 11.525 94.3662 11.7933H86.2268C86.598 12.8932 87.4762 13.4655 88.617 13.4655C89.7578 13.4655 90.3553 13.0273 91.1883 12.1867L94.0131 14.4045C92.7365 16.032 90.9981 17.132 88.2458 17.132C84.072 17.132 81.2925 14.5476 81.2925 10.6576L81.3015 10.6486ZM89.6039 9.50397C89.4862 8.31461 88.7709 7.62604 87.8384 7.62604C86.9058 7.62604 86.3354 8.3325 86.1725 9.50397H89.6039Z" fill="#153722"/>
<path d="M94.3926 4.21613H99.5639V6.75371C100.267 5.07099 101.389 3.94618 103.462 4.03616V9.58824H102.919C100.73 9.58824 99.5728 10.812 99.5728 13.5926V16.796H94.4015V4.21613H94.3926Z" fill="#153722"/>
<path fill-rule="evenodd" clip-rule="evenodd" d="M102.463 10.6286V10.5836C102.463 6.59334 104.951 3.94519 107.976 3.94519C111 3.94519 111.028 4.77386 111.861 5.67459V0H117.235V16.8346H111.861V15.2854C110.982 16.2041 109.992 17.1319 108.022 17.1319C104.896 17.1319 102.454 14.4837 102.454 10.6286H102.463ZM111.981 10.5565V10.5115C111.981 9.2685 111.056 8.25068 109.826 8.25068C108.596 8.25068 107.671 9.22346 107.671 10.5115V10.5565C107.671 11.8446 108.596 12.8174 109.826 12.8174C111.056 12.8174 111.981 11.8446 111.981 10.5565Z" fill="#153722"/>
<path fill-rule="evenodd" clip-rule="evenodd" d="M116.908 10.6486V10.6039C116.908 6.87486 119.624 4.03113 123.418 4.03113C127.211 4.03113 130 7.12525 130 10.9258C130 14.7264 130 11.525 129.973 11.7933H121.833C122.204 12.8932 123.083 13.4655 124.223 13.4655C125.364 13.4655 125.962 13.0273 126.795 12.1867L129.62 14.4045C128.343 16.032 126.605 17.132 123.852 17.132C119.678 17.132 116.899 14.5476 116.899 10.6576L116.908 10.6486ZM125.21 9.50397C125.093 8.31461 124.377 7.62604 123.445 7.62604C122.512 7.62604 121.942 8.3325 121.779 9.50397H125.21Z" fill="#153722"/>
</svg>
