<svg width="40" height="35" viewBox="0 0 40 35" fill="none" xmlns="http://www.w3.org/2000/svg">
<path d="M3.03369 15.6297C3.03369 14.2605 4.14362 13.1503 5.51315 13.1503H16.939C18.3081 13.1503 19.4184 14.2605 19.4184 15.6297V34.3563H3.03369V15.6297Z" fill="#0D2717"/>
<path d="M26.9557 14.7998C31.0423 14.7998 34.3554 11.4867 34.3554 7.40001C34.3554 3.31307 31.0423 0 26.9557 0C22.869 0 19.5562 3.31307 19.5562 7.40001C19.5562 11.4867 22.869 14.7998 26.9557 14.7998Z" fill="#0D2717"/>
<path d="M32.7697 34.3564C32.7697 25.3076 25.4333 17.9712 16.3847 17.9712C7.33615 17.9712 0 25.3076 0 34.3564" fill="#0D2717"/>
<path d="M39.1124 34.3564C39.1124 25.3076 31.7763 17.9712 22.7278 17.9712C13.6792 17.9712 6.34277 25.3076 6.34277 34.3564" fill="#1A4D2E"/>
</svg>
