<svg width="109" height="136" viewBox="0 0 109 136" fill="none" xmlns="http://www.w3.org/2000/svg">
<path d="M51.9822 67.1727H57.8595V73.1038H51.9822V67.1727ZM18.0758 0H109V105.051V105.16C101.927 105.16 96.2036 110.936 96.2036 118.074C96.2036 125.212 101.927 130.987 109 130.987V136H17.1581V135.945C7.70947 135.564 0 127.835 0 118.19C0 117.373 0 17.8095 0 17.8095C0 7.94737 8.30308 0 18.0758 0ZM96.9053 105.051L16.834 105.215C10.247 105.705 5.00934 111.263 5.00934 118.019C5.00934 125.157 10.7866 130.987 17.8597 130.933H96.7432C93.3955 127.664 91.236 123.086 91.236 118.019C91.236 112.897 93.45 108.321 96.9053 105.051ZM25.5574 80.2708L84.1977 80.2702C86.0026 80.2702 86.7411 78.9804 85.8379 77.4024L56.5172 26.1514C56.0771 25.3824 55.5006 24.9123 54.9203 24.9123C54.431 24.9123 53.6973 25.3435 53.2352 26.1514L23.9156 77.4029C23.014 78.9809 23.7525 80.2708 25.5574 80.2708ZM57.1253 63.2184L58.105 43.4477H51.7373L52.717 63.2184H57.1253Z" fill="white"/>
</svg>
