<svg width="36" height="37" viewBox="0 0 36 37" fill="none" xmlns="http://www.w3.org/2000/svg">
<g clip-path="url(#clip0_309_209)">
<path d="M17.3368 26.5832C17.6227 26.5832 17.8544 26.3514 17.8544 26.0656V16.8887C17.8544 7.57551 10.3046 0.0256348 0.991327 0.0256348C0.526356 0.0256348 0.149414 0.402576 0.149414 0.867548V9.39571C0.149414 18.888 7.84448 26.5832 17.3368 26.5832Z" fill="#0D2717"/>
<path d="M18.3721 26.5832C18.0862 26.5832 17.8545 26.3514 17.8545 26.0656V16.6874C17.8545 7.48537 25.4447 0.0256348 34.6466 0.0256348C35.1472 0.0256348 35.5596 0.431132 35.5596 0.931304V9.39571C35.5596 18.888 27.8644 26.5832 18.3721 26.5832Z" fill="#1A4D2E"/>
<path d="M17.3368 36.2655C17.6227 36.2655 17.8544 36.0338 17.8544 35.7478V26.5711C17.8544 17.2579 10.3046 9.70801 0.991327 9.70801C0.526356 9.70801 0.149414 10.0849 0.149414 10.5499V19.0781C0.149414 28.5704 7.84448 36.2655 17.3368 36.2655Z" fill="#1A4D2E"/>
<path d="M18.3721 36.2655C18.0862 36.2655 17.8545 36.0338 17.8545 35.7478V26.3697C17.8545 17.1677 25.4447 9.70801 34.6466 9.70801C35.1472 9.70801 35.5596 10.1135 35.5596 10.6137V19.0781C35.5596 28.5704 27.8644 36.2655 18.3721 36.2655Z" fill="#0D2717"/>
</g>
<defs>
<clipPath id="clip0_309_209">
<rect width="36" height="37" fill="white"/>
</clipPath>
</defs>
</svg>
