<svg width="390" height="742" viewBox="0 0 390 742" fill="none" xmlns="http://www.w3.org/2000/svg">
<path fill-rule="evenodd" clip-rule="evenodd" d="M390 0H0V742H390V0ZM329 195H62V471H329V195Z" fill="black" fill-opacity="0.5"/>
<path d="M62 195H329V471H62V195Z" stroke="#FFEE00" stroke-width="3" stroke-linecap="round" stroke-linejoin="bevel" stroke-dasharray="35 35"/>
<path d="M77.1854 484.757L73.9994 494H72.0731L76.0868 483.336H77.3173L77.1854 484.757ZM79.8515 494L76.6581 484.757L76.5189 483.336H77.7567L81.7851 494H79.8515ZM79.6977 490.045V491.502H73.8969V490.045H79.6977ZM84.6687 487.599V497.047H82.9036V486.075H84.5296L84.6687 487.599ZM89.8323 489.964V490.118C89.8323 490.694 89.764 491.229 89.6272 491.722C89.4954 492.21 89.2977 492.638 89.034 493.004C88.7752 493.365 88.4554 493.646 88.0745 493.846C87.6937 494.046 87.2542 494.146 86.7562 494.146C86.263 494.146 85.8309 494.056 85.4598 493.875C85.0936 493.69 84.7835 493.429 84.5296 493.092C84.2757 492.755 84.0706 492.359 83.9144 491.905C83.763 491.446 83.6556 490.943 83.5921 490.396V489.803C83.6556 489.222 83.763 488.695 83.9144 488.221C84.0706 487.748 84.2757 487.34 84.5296 486.998C84.7835 486.656 85.0936 486.393 85.4598 486.207C85.826 486.021 86.2532 485.929 86.7415 485.929C87.2395 485.929 87.6814 486.026 88.0672 486.222C88.4529 486.412 88.7776 486.686 89.0413 487.042C89.305 487.394 89.5027 487.818 89.6346 488.316C89.7664 488.81 89.8323 489.359 89.8323 489.964ZM88.0672 490.118V489.964C88.0672 489.598 88.033 489.259 87.9646 488.946C87.8963 488.629 87.7889 488.351 87.6424 488.111C87.4959 487.872 87.3079 487.687 87.0784 487.555C86.8538 487.418 86.5828 487.35 86.2654 487.35C85.9529 487.35 85.6844 487.403 85.4598 487.511C85.2352 487.613 85.0472 487.757 84.8958 487.943C84.7444 488.128 84.6272 488.346 84.5442 488.595C84.4612 488.839 84.4026 489.105 84.3685 489.393V490.814C84.427 491.166 84.5271 491.488 84.6687 491.781C84.8104 492.074 85.0105 492.308 85.2693 492.484C85.533 492.655 85.8699 492.74 86.2801 492.74C86.5975 492.74 86.8685 492.672 87.0931 492.535C87.3177 492.398 87.5008 492.21 87.6424 491.971C87.7889 491.727 87.8963 491.446 87.9646 491.129C88.033 490.812 88.0672 490.475 88.0672 490.118ZM93.3312 487.584V494H91.5661V486.075H93.2507L93.3312 487.584ZM95.7556 486.024L95.7409 487.665C95.6335 487.645 95.5163 487.63 95.3894 487.621C95.2673 487.611 95.1452 487.606 95.0231 487.606C94.7204 487.606 94.4543 487.65 94.2248 487.738C93.9953 487.821 93.8024 487.943 93.6462 488.104C93.4948 488.26 93.3776 488.451 93.2946 488.675C93.2116 488.9 93.1628 489.151 93.1481 489.43L92.7453 489.459C92.7453 488.961 92.7941 488.5 92.8918 488.075C92.9895 487.65 93.1359 487.276 93.3312 486.954C93.5314 486.632 93.7805 486.38 94.0783 486.2C94.3811 486.019 94.7302 485.929 95.1257 485.929C95.2331 485.929 95.3479 485.938 95.4699 485.958C95.5969 485.978 95.6921 486 95.7556 486.024ZM96.5592 490.125V489.957C96.5592 489.386 96.6422 488.856 96.8082 488.368C96.9742 487.875 97.2135 487.447 97.526 487.086C97.8434 486.72 98.2291 486.437 98.6832 486.236C99.1422 486.031 99.6598 485.929 100.236 485.929C100.817 485.929 101.335 486.031 101.789 486.236C102.248 486.437 102.636 486.72 102.953 487.086C103.271 487.447 103.512 487.875 103.678 488.368C103.844 488.856 103.927 489.386 103.927 489.957V490.125C103.927 490.697 103.844 491.227 103.678 491.715C103.512 492.203 103.271 492.63 102.953 492.997C102.636 493.358 102.25 493.641 101.796 493.846C101.342 494.046 100.827 494.146 100.251 494.146C99.6695 494.146 99.1495 494.046 98.6905 493.846C98.2364 493.641 97.8507 493.358 97.5333 492.997C97.2159 492.63 96.9742 492.203 96.8082 491.715C96.6422 491.227 96.5592 490.697 96.5592 490.125ZM98.3243 489.957V490.125C98.3243 490.482 98.3609 490.819 98.4342 491.136C98.5074 491.454 98.6222 491.732 98.7784 491.971C98.9347 492.21 99.1349 492.398 99.379 492.535C99.6231 492.672 99.9137 492.74 100.251 492.74C100.578 492.74 100.861 492.672 101.1 492.535C101.344 492.398 101.545 492.21 101.701 491.971C101.857 491.732 101.972 491.454 102.045 491.136C102.123 490.819 102.162 490.482 102.162 490.125V489.957C102.162 489.605 102.123 489.273 102.045 488.961C101.972 488.644 101.855 488.363 101.693 488.119C101.537 487.875 101.337 487.684 101.093 487.547C100.854 487.406 100.568 487.335 100.236 487.335C99.9039 487.335 99.6158 487.406 99.3717 487.547C99.1324 487.684 98.9347 487.875 98.7784 488.119C98.6222 488.363 98.5074 488.644 98.4342 488.961C98.3609 489.273 98.3243 489.605 98.3243 489.957ZM106.818 486.075L108.327 488.705L109.865 486.075H111.806L109.404 489.964L111.901 494H109.96L108.349 491.261L106.738 494H104.79L107.28 489.964L104.885 486.075H106.818ZM115.129 486.075V494H113.357V486.075H115.129ZM113.24 483.995C113.24 483.727 113.328 483.504 113.503 483.329C113.684 483.148 113.933 483.058 114.25 483.058C114.563 483.058 114.809 483.148 114.99 483.329C115.171 483.504 115.261 483.727 115.261 483.995C115.261 484.259 115.171 484.479 114.99 484.654C114.809 484.83 114.563 484.918 114.25 484.918C113.933 484.918 113.684 484.83 113.503 484.654C113.328 484.479 113.24 484.259 113.24 483.995ZM119.053 487.687V494H117.288V486.075H118.95L119.053 487.687ZM118.767 489.745L118.167 489.737C118.167 489.19 118.235 488.685 118.372 488.221C118.509 487.757 118.709 487.354 118.972 487.013C119.236 486.666 119.563 486.4 119.954 486.214C120.349 486.024 120.806 485.929 121.324 485.929C121.685 485.929 122.014 485.982 122.312 486.09C122.615 486.192 122.876 486.356 123.096 486.581C123.321 486.805 123.492 487.093 123.609 487.445C123.731 487.796 123.792 488.221 123.792 488.719V494H122.027V488.873C122.027 488.487 121.968 488.185 121.851 487.965C121.739 487.745 121.575 487.589 121.36 487.496C121.15 487.398 120.899 487.35 120.606 487.35C120.274 487.35 119.991 487.413 119.756 487.54C119.527 487.667 119.339 487.84 119.192 488.06C119.046 488.28 118.938 488.534 118.87 488.822C118.802 489.11 118.767 489.417 118.767 489.745ZM123.682 489.276L122.854 489.459C122.854 488.98 122.92 488.529 123.052 488.104C123.189 487.674 123.387 487.298 123.645 486.976C123.909 486.649 124.234 486.393 124.619 486.207C125.005 486.021 125.447 485.929 125.945 485.929C126.35 485.929 126.712 485.985 127.029 486.097C127.351 486.205 127.625 486.375 127.849 486.61C128.074 486.844 128.245 487.149 128.362 487.525C128.479 487.896 128.538 488.346 128.538 488.873V494H126.765V488.866C126.765 488.465 126.707 488.155 126.59 487.936C126.477 487.716 126.316 487.564 126.106 487.481C125.896 487.394 125.645 487.35 125.352 487.35C125.078 487.35 124.837 487.401 124.627 487.503C124.422 487.601 124.248 487.74 124.107 487.921C123.965 488.097 123.858 488.299 123.784 488.529C123.716 488.758 123.682 489.007 123.682 489.276ZM134.073 494.146C133.487 494.146 132.957 494.051 132.484 493.861C132.015 493.666 131.614 493.395 131.282 493.048C130.955 492.701 130.704 492.293 130.528 491.825C130.352 491.356 130.264 490.851 130.264 490.309V490.016C130.264 489.396 130.355 488.834 130.535 488.331C130.716 487.828 130.967 487.398 131.29 487.042C131.612 486.681 131.993 486.405 132.432 486.214C132.872 486.024 133.348 485.929 133.861 485.929C134.427 485.929 134.923 486.024 135.347 486.214C135.772 486.405 136.124 486.673 136.402 487.02C136.685 487.362 136.895 487.77 137.032 488.243C137.174 488.717 137.244 489.239 137.244 489.811V490.565H131.121V489.298H135.501V489.159C135.491 488.841 135.428 488.543 135.311 488.265C135.198 487.987 135.025 487.762 134.791 487.591C134.556 487.42 134.244 487.335 133.853 487.335C133.56 487.335 133.299 487.398 133.07 487.525C132.845 487.647 132.657 487.826 132.506 488.06C132.354 488.294 132.237 488.578 132.154 488.91C132.076 489.237 132.037 489.605 132.037 490.016V490.309C132.037 490.655 132.083 490.978 132.176 491.275C132.274 491.568 132.415 491.825 132.601 492.044C132.786 492.264 133.011 492.438 133.275 492.564C133.538 492.687 133.839 492.748 134.175 492.748C134.6 492.748 134.979 492.662 135.311 492.491C135.643 492.32 135.931 492.079 136.175 491.766L137.105 492.667C136.934 492.916 136.712 493.155 136.439 493.385C136.165 493.609 135.831 493.792 135.435 493.934C135.045 494.076 134.591 494.146 134.073 494.146ZM147.274 492.411V488.631C147.274 488.348 147.223 488.104 147.121 487.899C147.018 487.694 146.862 487.535 146.652 487.423C146.447 487.311 146.188 487.254 145.875 487.254C145.587 487.254 145.338 487.303 145.128 487.401C144.918 487.499 144.755 487.63 144.638 487.796C144.521 487.962 144.462 488.15 144.462 488.36H142.704C142.704 488.048 142.78 487.745 142.931 487.452C143.083 487.159 143.302 486.898 143.59 486.668C143.878 486.439 144.223 486.258 144.623 486.126C145.023 485.995 145.473 485.929 145.971 485.929C146.566 485.929 147.094 486.029 147.553 486.229C148.017 486.429 148.38 486.732 148.644 487.137C148.913 487.538 149.047 488.041 149.047 488.646V492.169C149.047 492.53 149.071 492.855 149.12 493.143C149.174 493.426 149.25 493.673 149.347 493.883V494H147.538C147.455 493.81 147.389 493.568 147.34 493.275C147.296 492.977 147.274 492.689 147.274 492.411ZM147.531 489.181L147.545 490.272H146.278C145.951 490.272 145.663 490.304 145.414 490.367C145.165 490.426 144.958 490.514 144.792 490.631C144.625 490.748 144.501 490.89 144.418 491.056C144.335 491.222 144.293 491.41 144.293 491.62C144.293 491.83 144.342 492.022 144.44 492.198C144.538 492.369 144.679 492.503 144.865 492.601C145.055 492.699 145.285 492.748 145.553 492.748C145.915 492.748 146.229 492.674 146.498 492.528C146.771 492.376 146.986 492.193 147.143 491.979C147.299 491.759 147.382 491.551 147.392 491.356L147.963 492.14C147.904 492.34 147.804 492.555 147.663 492.784C147.521 493.014 147.335 493.233 147.106 493.443C146.881 493.648 146.61 493.817 146.293 493.949C145.98 494.081 145.619 494.146 145.209 494.146C144.691 494.146 144.23 494.044 143.825 493.839C143.419 493.629 143.102 493.348 142.873 492.997C142.643 492.64 142.528 492.237 142.528 491.788C142.528 491.368 142.606 490.997 142.763 490.675C142.924 490.348 143.158 490.074 143.466 489.854C143.778 489.635 144.159 489.469 144.608 489.356C145.058 489.239 145.57 489.181 146.146 489.181H147.531ZM156.85 487.599V497.047H155.085V486.075H156.711L156.85 487.599ZM162.014 489.964V490.118C162.014 490.694 161.946 491.229 161.809 491.722C161.677 492.21 161.479 492.638 161.216 493.004C160.957 493.365 160.637 493.646 160.256 493.846C159.875 494.046 159.436 494.146 158.938 494.146C158.445 494.146 158.012 494.056 157.641 493.875C157.275 493.69 156.965 493.429 156.711 493.092C156.457 492.755 156.252 492.359 156.096 491.905C155.945 491.446 155.837 490.943 155.774 490.396V489.803C155.837 489.222 155.945 488.695 156.096 488.221C156.252 487.748 156.457 487.34 156.711 486.998C156.965 486.656 157.275 486.393 157.641 486.207C158.008 486.021 158.435 485.929 158.923 485.929C159.421 485.929 159.863 486.026 160.249 486.222C160.635 486.412 160.959 486.686 161.223 487.042C161.487 487.394 161.684 487.818 161.816 488.316C161.948 488.81 162.014 489.359 162.014 489.964ZM160.249 490.118V489.964C160.249 489.598 160.215 489.259 160.146 488.946C160.078 488.629 159.971 488.351 159.824 488.111C159.678 487.872 159.49 487.687 159.26 487.555C159.035 487.418 158.764 487.35 158.447 487.35C158.135 487.35 157.866 487.403 157.641 487.511C157.417 487.613 157.229 487.757 157.077 487.943C156.926 488.128 156.809 488.346 156.726 488.595C156.643 488.839 156.584 489.105 156.55 489.393V490.814C156.609 491.166 156.709 491.488 156.85 491.781C156.992 492.074 157.192 492.308 157.451 492.484C157.715 492.655 158.052 492.74 158.462 492.74C158.779 492.74 159.05 492.672 159.275 492.535C159.499 492.398 159.682 492.21 159.824 491.971C159.971 491.727 160.078 491.446 160.146 491.129C160.215 490.812 160.249 490.475 160.249 490.118ZM165.63 482.75V494H163.858V482.75H165.63ZM172.256 492.411V488.631C172.256 488.348 172.205 488.104 172.103 487.899C172 487.694 171.844 487.535 171.634 487.423C171.429 487.311 171.17 487.254 170.858 487.254C170.569 487.254 170.32 487.303 170.11 487.401C169.9 487.499 169.737 487.63 169.62 487.796C169.503 487.962 169.444 488.15 169.444 488.36H167.686C167.686 488.048 167.762 487.745 167.913 487.452C168.065 487.159 168.284 486.898 168.572 486.668C168.86 486.439 169.205 486.258 169.605 486.126C170.005 485.995 170.455 485.929 170.953 485.929C171.548 485.929 172.076 486.029 172.535 486.229C172.999 486.429 173.362 486.732 173.626 487.137C173.895 487.538 174.029 488.041 174.029 488.646V492.169C174.029 492.53 174.053 492.855 174.102 493.143C174.156 493.426 174.232 493.673 174.329 493.883V494H172.52C172.437 493.81 172.371 493.568 172.322 493.275C172.278 492.977 172.256 492.689 172.256 492.411ZM172.513 489.181L172.527 490.272H171.26C170.933 490.272 170.645 490.304 170.396 490.367C170.147 490.426 169.94 490.514 169.774 490.631C169.608 490.748 169.483 490.89 169.4 491.056C169.317 491.222 169.275 491.41 169.275 491.62C169.275 491.83 169.324 492.022 169.422 492.198C169.52 492.369 169.661 492.503 169.847 492.601C170.037 492.699 170.267 492.748 170.535 492.748C170.897 492.748 171.212 492.674 171.48 492.528C171.754 492.376 171.968 492.193 172.125 491.979C172.281 491.759 172.364 491.551 172.374 491.356L172.945 492.14C172.886 492.34 172.786 492.555 172.645 492.784C172.503 493.014 172.317 493.233 172.088 493.443C171.863 493.648 171.592 493.817 171.275 493.949C170.963 494.081 170.601 494.146 170.191 494.146C169.673 494.146 169.212 494.044 168.807 493.839C168.401 493.629 168.084 493.348 167.855 492.997C167.625 492.64 167.51 492.237 167.51 491.788C167.51 491.368 167.588 490.997 167.745 490.675C167.906 490.348 168.14 490.074 168.448 489.854C168.76 489.635 169.141 489.469 169.59 489.356C170.04 489.239 170.552 489.181 171.129 489.181H172.513ZM177.85 487.767V494H176.085V486.075H177.748L177.85 487.767ZM177.535 489.745L176.964 489.737C176.969 489.176 177.047 488.661 177.198 488.192C177.354 487.723 177.569 487.32 177.843 486.983C178.121 486.646 178.453 486.388 178.839 486.207C179.225 486.021 179.654 485.929 180.128 485.929C180.509 485.929 180.853 485.982 181.161 486.09C181.473 486.192 181.739 486.361 181.959 486.595C182.184 486.83 182.354 487.135 182.472 487.511C182.589 487.882 182.647 488.338 182.647 488.88V494H180.875V488.873C180.875 488.492 180.819 488.192 180.707 487.972C180.599 487.748 180.44 487.589 180.23 487.496C180.025 487.398 179.769 487.35 179.461 487.35C179.159 487.35 178.888 487.413 178.648 487.54C178.409 487.667 178.207 487.84 178.041 488.06C177.879 488.28 177.755 488.534 177.667 488.822C177.579 489.11 177.535 489.417 177.535 489.745ZM188.307 486.075V487.364H183.839V486.075H188.307ZM185.128 484.134H186.893V491.81C186.893 492.054 186.928 492.242 186.996 492.374C187.069 492.501 187.169 492.586 187.296 492.63C187.423 492.674 187.572 492.696 187.743 492.696C187.865 492.696 187.982 492.689 188.095 492.674C188.207 492.66 188.297 492.645 188.366 492.63L188.373 493.978C188.226 494.022 188.056 494.061 187.86 494.095C187.67 494.129 187.45 494.146 187.201 494.146C186.796 494.146 186.437 494.076 186.124 493.934C185.812 493.788 185.568 493.551 185.392 493.224C185.216 492.896 185.128 492.462 185.128 491.92V484.134ZM194.362 492.411V488.631C194.362 488.348 194.311 488.104 194.208 487.899C194.106 487.694 193.95 487.535 193.74 487.423C193.534 487.311 193.276 487.254 192.963 487.254C192.675 487.254 192.426 487.303 192.216 487.401C192.006 487.499 191.843 487.63 191.725 487.796C191.608 487.962 191.55 488.15 191.55 488.36H189.792C189.792 488.048 189.867 487.745 190.019 487.452C190.17 487.159 190.39 486.898 190.678 486.668C190.966 486.439 191.31 486.258 191.711 486.126C192.111 485.995 192.56 485.929 193.058 485.929C193.654 485.929 194.181 486.029 194.64 486.229C195.104 486.429 195.468 486.732 195.732 487.137C196 487.538 196.135 488.041 196.135 488.646V492.169C196.135 492.53 196.159 492.855 196.208 493.143C196.262 493.426 196.337 493.673 196.435 493.883V494H194.626C194.543 493.81 194.477 493.568 194.428 493.275C194.384 492.977 194.362 492.689 194.362 492.411ZM194.618 489.181L194.633 490.272H193.366C193.039 490.272 192.751 490.304 192.502 490.367C192.253 490.426 192.045 490.514 191.879 490.631C191.713 490.748 191.589 490.89 191.506 491.056C191.423 491.222 191.381 491.41 191.381 491.62C191.381 491.83 191.43 492.022 191.528 492.198C191.625 492.369 191.767 492.503 191.952 492.601C192.143 492.699 192.372 492.748 192.641 492.748C193.002 492.748 193.317 492.674 193.586 492.528C193.859 492.376 194.074 492.193 194.23 491.979C194.387 491.759 194.47 491.551 194.479 491.356L195.051 492.14C194.992 492.34 194.892 492.555 194.75 492.784C194.609 493.014 194.423 493.233 194.194 493.443C193.969 493.648 193.698 493.817 193.381 493.949C193.068 494.081 192.707 494.146 192.297 494.146C191.779 494.146 191.318 494.044 190.912 493.839C190.507 493.629 190.19 493.348 189.96 492.997C189.731 492.64 189.616 492.237 189.616 491.788C189.616 491.368 189.694 490.997 189.85 490.675C190.012 490.348 190.246 490.074 190.554 489.854C190.866 489.635 191.247 489.469 191.696 489.356C192.145 489.239 192.658 489.181 193.234 489.181H194.618ZM205.403 492.74C205.691 492.74 205.95 492.684 206.179 492.572C206.414 492.455 206.602 492.293 206.743 492.088C206.89 491.883 206.97 491.646 206.985 491.378H208.648C208.638 491.891 208.486 492.357 208.193 492.777C207.9 493.197 207.512 493.531 207.029 493.78C206.546 494.024 206.011 494.146 205.425 494.146C204.819 494.146 204.292 494.044 203.843 493.839C203.394 493.629 203.02 493.341 202.722 492.975C202.424 492.608 202.2 492.186 202.048 491.708C201.902 491.229 201.829 490.716 201.829 490.169V489.913C201.829 489.366 201.902 488.854 202.048 488.375C202.2 487.892 202.424 487.467 202.722 487.101C203.02 486.734 203.394 486.449 203.843 486.244C204.292 486.034 204.817 485.929 205.418 485.929C206.052 485.929 206.609 486.056 207.087 486.31C207.566 486.559 207.942 486.908 208.215 487.357C208.494 487.801 208.638 488.319 208.648 488.91H206.985C206.97 488.617 206.897 488.353 206.765 488.119C206.638 487.879 206.458 487.689 206.223 487.547C205.994 487.406 205.718 487.335 205.396 487.335C205.039 487.335 204.744 487.408 204.509 487.555C204.275 487.696 204.092 487.892 203.96 488.141C203.828 488.385 203.733 488.661 203.674 488.968C203.621 489.271 203.594 489.586 203.594 489.913V490.169C203.594 490.497 203.621 490.814 203.674 491.122C203.728 491.429 203.821 491.705 203.953 491.949C204.089 492.188 204.275 492.381 204.509 492.528C204.744 492.669 205.042 492.74 205.403 492.74ZM209.891 490.125V489.957C209.891 489.386 209.974 488.856 210.14 488.368C210.306 487.875 210.545 487.447 210.857 487.086C211.175 486.72 211.561 486.437 212.015 486.236C212.474 486.031 212.991 485.929 213.567 485.929C214.148 485.929 214.666 486.031 215.12 486.236C215.579 486.437 215.967 486.72 216.285 487.086C216.602 487.447 216.844 487.875 217.01 488.368C217.176 488.856 217.259 489.386 217.259 489.957V490.125C217.259 490.697 217.176 491.227 217.01 491.715C216.844 492.203 216.602 492.63 216.285 492.997C215.967 493.358 215.582 493.641 215.127 493.846C214.673 494.046 214.158 494.146 213.582 494.146C213.001 494.146 212.481 494.046 212.022 493.846C211.568 493.641 211.182 493.358 210.865 492.997C210.547 492.63 210.306 492.203 210.14 491.715C209.974 491.227 209.891 490.697 209.891 490.125ZM211.656 489.957V490.125C211.656 490.482 211.692 490.819 211.766 491.136C211.839 491.454 211.954 491.732 212.11 491.971C212.266 492.21 212.466 492.398 212.71 492.535C212.955 492.672 213.245 492.74 213.582 492.74C213.909 492.74 214.192 492.672 214.432 492.535C214.676 492.398 214.876 492.21 215.032 491.971C215.188 491.732 215.303 491.454 215.376 491.136C215.455 490.819 215.494 490.482 215.494 490.125V489.957C215.494 489.605 215.455 489.273 215.376 488.961C215.303 488.644 215.186 488.363 215.025 488.119C214.869 487.875 214.668 487.684 214.424 487.547C214.185 487.406 213.899 487.335 213.567 487.335C213.235 487.335 212.947 487.406 212.703 487.547C212.464 487.684 212.266 487.875 212.11 488.119C211.954 488.363 211.839 488.644 211.766 488.961C211.692 489.273 211.656 489.605 211.656 489.957ZM220.728 487.687V494H218.963V486.075H220.626L220.728 487.687ZM220.443 489.745L219.842 489.737C219.842 489.19 219.911 488.685 220.047 488.221C220.184 487.757 220.384 487.354 220.648 487.013C220.912 486.666 221.239 486.4 221.629 486.214C222.025 486.024 222.481 485.929 222.999 485.929C223.36 485.929 223.69 485.982 223.988 486.09C224.29 486.192 224.552 486.356 224.771 486.581C224.996 486.805 225.167 487.093 225.284 487.445C225.406 487.796 225.467 488.221 225.467 488.719V494H223.702V488.873C223.702 488.487 223.643 488.185 223.526 487.965C223.414 487.745 223.25 487.589 223.036 487.496C222.826 487.398 222.574 487.35 222.281 487.35C221.949 487.35 221.666 487.413 221.432 487.54C221.202 487.667 221.014 487.84 220.868 488.06C220.721 488.28 220.614 488.534 220.545 488.822C220.477 489.11 220.443 489.417 220.443 489.745ZM225.357 489.276L224.53 489.459C224.53 488.98 224.596 488.529 224.727 488.104C224.864 487.674 225.062 487.298 225.321 486.976C225.584 486.649 225.909 486.393 226.295 486.207C226.681 486.021 227.122 485.929 227.621 485.929C228.026 485.929 228.387 485.985 228.704 486.097C229.027 486.205 229.3 486.375 229.525 486.61C229.749 486.844 229.92 487.149 230.038 487.525C230.155 487.896 230.213 488.346 230.213 488.873V494H228.441V488.866C228.441 488.465 228.382 488.155 228.265 487.936C228.153 487.716 227.992 487.564 227.782 487.481C227.572 487.394 227.32 487.35 227.027 487.35C226.754 487.35 226.512 487.401 226.302 487.503C226.097 487.601 225.924 487.74 225.782 487.921C225.641 488.097 225.533 488.299 225.46 488.529C225.392 488.758 225.357 489.007 225.357 489.276ZM240.683 492.411V488.631C240.683 488.348 240.632 488.104 240.529 487.899C240.426 487.694 240.27 487.535 240.06 487.423C239.855 487.311 239.596 487.254 239.284 487.254C238.996 487.254 238.747 487.303 238.537 487.401C238.327 487.499 238.163 487.63 238.046 487.796C237.929 487.962 237.87 488.15 237.87 488.36H236.112C236.112 488.048 236.188 487.745 236.34 487.452C236.491 487.159 236.711 486.898 236.999 486.668C237.287 486.439 237.631 486.258 238.031 486.126C238.432 485.995 238.881 485.929 239.379 485.929C239.975 485.929 240.502 486.029 240.961 486.229C241.425 486.429 241.789 486.732 242.052 487.137C242.321 487.538 242.455 488.041 242.455 488.646V492.169C242.455 492.53 242.48 492.855 242.529 493.143C242.582 493.426 242.658 493.673 242.756 493.883V494H240.946C240.863 493.81 240.798 493.568 240.749 493.275C240.705 492.977 240.683 492.689 240.683 492.411ZM240.939 489.181L240.954 490.272H239.687C239.36 490.272 239.071 490.304 238.822 490.367C238.573 490.426 238.366 490.514 238.2 490.631C238.034 490.748 237.909 490.89 237.826 491.056C237.743 491.222 237.702 491.41 237.702 491.62C237.702 491.83 237.751 492.022 237.848 492.198C237.946 492.369 238.088 492.503 238.273 492.601C238.464 492.699 238.693 492.748 238.962 492.748C239.323 492.748 239.638 492.674 239.906 492.528C240.18 492.376 240.395 492.193 240.551 491.979C240.707 491.759 240.79 491.551 240.8 491.356L241.371 492.14C241.313 492.34 241.213 492.555 241.071 492.784C240.929 493.014 240.744 493.233 240.514 493.443C240.29 493.648 240.019 493.817 239.701 493.949C239.389 494.081 239.028 494.146 238.617 494.146C238.1 494.146 237.638 494.044 237.233 493.839C236.828 493.629 236.51 493.348 236.281 492.997C236.051 492.64 235.937 492.237 235.937 491.788C235.937 491.368 236.015 490.997 236.171 490.675C236.332 490.348 236.567 490.074 236.874 489.854C237.187 489.635 237.568 489.469 238.017 489.356C238.466 489.239 238.979 489.181 239.555 489.181H240.939ZM253.32 492.359V482.75H255.093V494H253.489L253.32 492.359ZM248.164 490.125V489.972C248.164 489.371 248.235 488.824 248.376 488.331C248.518 487.833 248.723 487.406 248.992 487.049C249.26 486.688 249.587 486.412 249.973 486.222C250.359 486.026 250.793 485.929 251.277 485.929C251.755 485.929 252.175 486.021 252.537 486.207C252.898 486.393 253.206 486.659 253.459 487.005C253.713 487.347 253.916 487.757 254.067 488.236C254.219 488.709 254.326 489.237 254.39 489.818V490.309C254.326 490.875 254.219 491.393 254.067 491.861C253.916 492.33 253.713 492.735 253.459 493.077C253.206 493.419 252.896 493.683 252.529 493.868C252.168 494.054 251.746 494.146 251.262 494.146C250.784 494.146 250.352 494.046 249.966 493.846C249.585 493.646 249.26 493.365 248.992 493.004C248.723 492.643 248.518 492.218 248.376 491.729C248.235 491.236 248.164 490.702 248.164 490.125ZM249.929 489.972V490.125C249.929 490.487 249.961 490.824 250.024 491.136C250.093 491.449 250.198 491.725 250.339 491.964C250.481 492.198 250.664 492.384 250.889 492.521C251.118 492.652 251.392 492.718 251.709 492.718C252.109 492.718 252.439 492.63 252.698 492.455C252.957 492.279 253.159 492.042 253.306 491.744C253.457 491.441 253.56 491.104 253.613 490.733V489.408C253.584 489.12 253.523 488.851 253.43 488.602C253.342 488.353 253.223 488.136 253.071 487.95C252.92 487.76 252.732 487.613 252.507 487.511C252.288 487.403 252.026 487.35 251.724 487.35C251.401 487.35 251.128 487.418 250.903 487.555C250.679 487.691 250.493 487.879 250.347 488.119C250.205 488.358 250.1 488.636 250.032 488.954C249.963 489.271 249.929 489.61 249.929 489.972ZM256.827 490.125V489.957C256.827 489.386 256.91 488.856 257.076 488.368C257.242 487.875 257.481 487.447 257.793 487.086C258.111 486.72 258.496 486.437 258.951 486.236C259.41 486.031 259.927 485.929 260.503 485.929C261.084 485.929 261.602 486.031 262.056 486.236C262.515 486.437 262.903 486.72 263.221 487.086C263.538 487.447 263.78 487.875 263.946 488.368C264.112 488.856 264.195 489.386 264.195 489.957V490.125C264.195 490.697 264.112 491.227 263.946 491.715C263.78 492.203 263.538 492.63 263.221 492.997C262.903 493.358 262.517 493.641 262.063 493.846C261.609 494.046 261.094 494.146 260.518 494.146C259.937 494.146 259.417 494.046 258.958 493.846C258.504 493.641 258.118 493.358 257.801 492.997C257.483 492.63 257.242 492.203 257.076 491.715C256.91 491.227 256.827 490.697 256.827 490.125ZM258.592 489.957V490.125C258.592 490.482 258.628 490.819 258.702 491.136C258.775 491.454 258.89 491.732 259.046 491.971C259.202 492.21 259.402 492.398 259.646 492.535C259.891 492.672 260.181 492.74 260.518 492.74C260.845 492.74 261.128 492.672 261.368 492.535C261.612 492.398 261.812 492.21 261.968 491.971C262.124 491.732 262.239 491.454 262.312 491.136C262.391 490.819 262.43 490.482 262.43 490.125V489.957C262.43 489.605 262.391 489.273 262.312 488.961C262.239 488.644 262.122 488.363 261.961 488.119C261.805 487.875 261.604 487.684 261.36 487.547C261.121 487.406 260.835 487.335 260.503 487.335C260.171 487.335 259.883 487.406 259.639 487.547C259.4 487.684 259.202 487.875 259.046 488.119C258.89 488.363 258.775 488.644 258.702 488.961C258.628 489.273 258.592 489.605 258.592 489.957ZM269.393 494.146C268.807 494.146 268.277 494.051 267.804 493.861C267.335 493.666 266.934 493.395 266.602 493.048C266.275 492.701 266.024 492.293 265.848 491.825C265.672 491.356 265.584 490.851 265.584 490.309V490.016C265.584 489.396 265.675 488.834 265.855 488.331C266.036 487.828 266.287 487.398 266.61 487.042C266.932 486.681 267.313 486.405 267.752 486.214C268.192 486.024 268.668 485.929 269.18 485.929C269.747 485.929 270.242 486.024 270.667 486.214C271.092 486.405 271.444 486.673 271.722 487.02C272.005 487.362 272.215 487.77 272.352 488.243C272.493 488.717 272.564 489.239 272.564 489.811V490.565H266.441V489.298H270.821V489.159C270.811 488.841 270.748 488.543 270.631 488.265C270.518 487.987 270.345 487.762 270.111 487.591C269.876 487.42 269.564 487.335 269.173 487.335C268.88 487.335 268.619 487.398 268.389 487.525C268.165 487.647 267.977 487.826 267.826 488.06C267.674 488.294 267.557 488.578 267.474 488.91C267.396 489.237 267.357 489.605 267.357 490.016V490.309C267.357 490.655 267.403 490.978 267.496 491.275C267.594 491.568 267.735 491.825 267.921 492.044C268.106 492.264 268.331 492.438 268.595 492.564C268.858 492.687 269.159 492.748 269.495 492.748C269.92 492.748 270.299 492.662 270.631 492.491C270.963 492.32 271.251 492.079 271.495 491.766L272.425 492.667C272.254 492.916 272.032 493.155 271.759 493.385C271.485 493.609 271.151 493.792 270.755 493.934C270.365 494.076 269.91 494.146 269.393 494.146ZM275.917 487.767V494H274.152V486.075H275.814L275.917 487.767ZM275.602 489.745L275.03 489.737C275.035 489.176 275.113 488.661 275.265 488.192C275.421 487.723 275.636 487.32 275.909 486.983C276.188 486.646 276.52 486.388 276.905 486.207C277.291 486.021 277.721 485.929 278.195 485.929C278.575 485.929 278.92 485.982 279.227 486.09C279.54 486.192 279.806 486.361 280.026 486.595C280.25 486.83 280.421 487.135 280.538 487.511C280.655 487.882 280.714 488.338 280.714 488.88V494H278.942V488.873C278.942 488.492 278.885 488.192 278.773 487.972C278.666 487.748 278.507 487.589 278.297 487.496C278.092 487.398 277.836 487.35 277.528 487.35C277.225 487.35 276.954 487.413 276.715 487.54C276.476 487.667 276.273 487.84 276.107 488.06C275.946 488.28 275.821 488.534 275.734 488.822C275.646 489.11 275.602 489.417 275.602 489.745ZM285.978 492.74C286.266 492.74 286.525 492.684 286.754 492.572C286.989 492.455 287.177 492.293 287.318 492.088C287.465 491.883 287.546 491.646 287.56 491.378H289.223C289.213 491.891 289.062 492.357 288.769 492.777C288.476 493.197 288.087 493.531 287.604 493.78C287.121 494.024 286.586 494.146 286 494.146C285.395 494.146 284.867 494.044 284.418 493.839C283.969 493.629 283.595 493.341 283.297 492.975C283 492.608 282.775 492.186 282.624 491.708C282.477 491.229 282.404 490.716 282.404 490.169V489.913C282.404 489.366 282.477 488.854 282.624 488.375C282.775 487.892 283 487.467 283.297 487.101C283.595 486.734 283.969 486.449 284.418 486.244C284.867 486.034 285.392 485.929 285.993 485.929C286.628 485.929 287.184 486.056 287.663 486.31C288.141 486.559 288.517 486.908 288.791 487.357C289.069 487.801 289.213 488.319 289.223 488.91H287.56C287.546 488.617 287.472 488.353 287.34 488.119C287.213 487.879 287.033 487.689 286.798 487.547C286.569 487.406 286.293 487.335 285.971 487.335C285.614 487.335 285.319 487.408 285.085 487.555C284.85 487.696 284.667 487.892 284.535 488.141C284.403 488.385 284.308 488.661 284.25 488.968C284.196 489.271 284.169 489.586 284.169 489.913V490.169C284.169 490.497 284.196 490.814 284.25 491.122C284.303 491.429 284.396 491.705 284.528 491.949C284.665 492.188 284.85 492.381 285.085 492.528C285.319 492.669 285.617 492.74 285.978 492.74ZM285.202 494.015H286.513L286.425 494.425C286.703 494.474 286.957 494.591 287.187 494.776C287.421 494.967 287.538 495.272 287.538 495.692C287.538 495.941 287.487 496.166 287.384 496.366C287.282 496.566 287.128 496.737 286.923 496.878C286.723 497.025 286.471 497.137 286.169 497.215C285.871 497.293 285.524 497.333 285.129 497.333L285.077 496.336C285.268 496.336 285.439 496.312 285.59 496.263C285.741 496.219 285.861 496.148 285.949 496.051C286.042 495.953 286.088 495.826 286.088 495.67C286.088 495.519 286.049 495.401 285.971 495.318C285.893 495.235 285.771 495.172 285.605 495.128C285.443 495.084 285.233 495.052 284.975 495.033L285.202 494.015ZM295.271 492.411V488.631C295.271 488.348 295.219 488.104 295.117 487.899C295.014 487.694 294.858 487.535 294.648 487.423C294.443 487.311 294.184 487.254 293.872 487.254C293.583 487.254 293.334 487.303 293.125 487.401C292.915 487.499 292.751 487.63 292.634 487.796C292.517 487.962 292.458 488.15 292.458 488.36H290.7C290.7 488.048 290.776 487.745 290.927 487.452C291.079 487.159 291.298 486.898 291.586 486.668C291.875 486.439 292.219 486.258 292.619 486.126C293.02 485.995 293.469 485.929 293.967 485.929C294.562 485.929 295.09 486.029 295.549 486.229C296.013 486.429 296.376 486.732 296.64 487.137C296.909 487.538 297.043 488.041 297.043 488.646V492.169C297.043 492.53 297.067 492.855 297.116 493.143C297.17 493.426 297.246 493.673 297.343 493.883V494H295.534C295.451 493.81 295.385 493.568 295.336 493.275C295.292 492.977 295.271 492.689 295.271 492.411ZM295.527 489.181L295.542 490.272H294.274C293.947 490.272 293.659 490.304 293.41 490.367C293.161 490.426 292.954 490.514 292.788 490.631C292.622 490.748 292.497 490.89 292.414 491.056C292.331 491.222 292.29 491.41 292.29 491.62C292.29 491.83 292.338 492.022 292.436 492.198C292.534 492.369 292.675 492.503 292.861 492.601C293.051 492.699 293.281 492.748 293.549 492.748C293.911 492.748 294.226 492.674 294.494 492.528C294.768 492.376 294.982 492.193 295.139 491.979C295.295 491.759 295.378 491.551 295.388 491.356L295.959 492.14C295.9 492.34 295.8 492.555 295.659 492.784C295.517 493.014 295.332 493.233 295.102 493.443C294.877 493.648 294.606 493.817 294.289 493.949C293.977 494.081 293.615 494.146 293.205 494.146C292.688 494.146 292.226 494.044 291.821 493.839C291.416 493.629 291.098 493.348 290.869 492.997C290.639 492.64 290.524 492.237 290.524 491.788C290.524 491.368 290.603 490.997 290.759 490.675C290.92 490.348 291.154 490.074 291.462 489.854C291.774 489.635 292.155 489.469 292.604 489.356C293.054 489.239 293.566 489.181 294.143 489.181H295.527ZM304.825 487.767V494H303.059V486.075H304.722L304.825 487.767ZM304.51 489.745L303.938 489.737C303.943 489.176 304.021 488.661 304.173 488.192C304.329 487.723 304.544 487.32 304.817 486.983C305.096 486.646 305.428 486.388 305.813 486.207C306.199 486.021 306.629 485.929 307.102 485.929C307.483 485.929 307.827 485.982 308.135 486.09C308.448 486.192 308.714 486.361 308.933 486.595C309.158 486.83 309.329 487.135 309.446 487.511C309.563 487.882 309.622 488.338 309.622 488.88V494H307.849V488.873C307.849 488.492 307.793 488.192 307.681 487.972C307.574 487.748 307.415 487.589 307.205 487.496C307 487.398 306.743 487.35 306.436 487.35C306.133 487.35 305.862 487.413 305.623 487.54C305.384 487.667 305.181 487.84 305.015 488.06C304.854 488.28 304.729 488.534 304.641 488.822C304.554 489.11 304.51 489.417 304.51 489.745ZM316.116 492.411V488.631C316.116 488.348 316.065 488.104 315.963 487.899C315.86 487.694 315.704 487.535 315.494 487.423C315.289 487.311 315.03 487.254 314.717 487.254C314.429 487.254 314.18 487.303 313.97 487.401C313.76 487.499 313.597 487.63 313.48 487.796C313.362 487.962 313.304 488.15 313.304 488.36H311.546C311.546 488.048 311.622 487.745 311.773 487.452C311.924 487.159 312.144 486.898 312.432 486.668C312.72 486.439 313.065 486.258 313.465 486.126C313.865 485.995 314.315 485.929 314.813 485.929C315.408 485.929 315.936 486.029 316.395 486.229C316.859 486.429 317.222 486.732 317.486 487.137C317.755 487.538 317.889 488.041 317.889 488.646V492.169C317.889 492.53 317.913 492.855 317.962 493.143C318.016 493.426 318.091 493.673 318.189 493.883V494H316.38C316.297 493.81 316.231 493.568 316.182 493.275C316.138 492.977 316.116 492.689 316.116 492.411ZM316.373 489.181L316.387 490.272H315.12C314.793 490.272 314.505 490.304 314.256 490.367C314.007 490.426 313.799 490.514 313.633 490.631C313.467 490.748 313.343 490.89 313.26 491.056C313.177 491.222 313.135 491.41 313.135 491.62C313.135 491.83 313.184 492.022 313.282 492.198C313.38 492.369 313.521 492.503 313.707 492.601C313.897 492.699 314.127 492.748 314.395 492.748C314.757 492.748 315.071 492.674 315.34 492.528C315.613 492.376 315.828 492.193 315.985 491.979C316.141 491.759 316.224 491.551 316.234 491.356L316.805 492.14C316.746 492.34 316.646 492.555 316.505 492.784C316.363 493.014 316.177 493.233 315.948 493.443C315.723 493.648 315.452 493.817 315.135 493.949C314.822 494.081 314.461 494.146 314.051 494.146C313.533 494.146 313.072 494.044 312.667 493.839C312.261 493.629 311.944 493.348 311.715 492.997C311.485 492.64 311.37 492.237 311.37 491.788C311.37 491.368 311.448 490.997 311.605 490.675C311.766 490.348 312 490.074 312.308 489.854C312.62 489.635 313.001 489.469 313.45 489.356C313.9 489.239 314.412 489.181 314.988 489.181H316.373ZM138.683 505.584V512H136.918V504.075H138.603L138.683 505.584ZM141.107 504.024L141.093 505.665C140.985 505.645 140.868 505.63 140.741 505.621C140.619 505.611 140.497 505.606 140.375 505.606C140.072 505.606 139.806 505.65 139.577 505.738C139.347 505.821 139.154 505.943 138.998 506.104C138.847 506.26 138.729 506.451 138.646 506.675C138.563 506.9 138.515 507.151 138.5 507.43L138.097 507.459C138.097 506.961 138.146 506.5 138.244 506.075C138.341 505.65 138.488 505.276 138.683 504.954C138.883 504.632 139.132 504.38 139.43 504.2C139.733 504.019 140.082 503.929 140.478 503.929C140.585 503.929 140.7 503.938 140.822 503.958C140.949 503.978 141.044 504 141.107 504.024ZM145.786 512.146C145.2 512.146 144.67 512.051 144.196 511.861C143.727 511.666 143.327 511.395 142.995 511.048C142.668 510.701 142.416 510.293 142.241 509.825C142.065 509.356 141.977 508.851 141.977 508.309V508.016C141.977 507.396 142.067 506.834 142.248 506.331C142.429 505.828 142.68 505.398 143.002 505.042C143.325 504.681 143.705 504.405 144.145 504.214C144.584 504.024 145.06 503.929 145.573 503.929C146.14 503.929 146.635 504.024 147.06 504.214C147.485 504.405 147.836 504.673 148.115 505.02C148.398 505.362 148.608 505.77 148.745 506.243C148.886 506.717 148.957 507.239 148.957 507.811V508.565H142.834V507.298H147.214V507.159C147.204 506.841 147.141 506.543 147.023 506.265C146.911 505.987 146.738 505.762 146.503 505.591C146.269 505.42 145.956 505.335 145.566 505.335C145.273 505.335 145.012 505.398 144.782 505.525C144.558 505.647 144.37 505.826 144.218 506.06C144.067 506.294 143.95 506.578 143.867 506.91C143.788 507.237 143.749 507.605 143.749 508.016V508.309C143.749 508.655 143.796 508.978 143.889 509.275C143.986 509.568 144.128 509.825 144.313 510.044C144.499 510.264 144.724 510.438 144.987 510.564C145.251 510.687 145.551 510.748 145.888 510.748C146.313 510.748 146.691 510.662 147.023 510.491C147.355 510.32 147.643 510.079 147.888 509.766L148.818 510.667C148.647 510.916 148.425 511.155 148.151 511.385C147.878 511.609 147.543 511.792 147.148 511.934C146.757 512.076 146.303 512.146 145.786 512.146ZM155.635 504.075H157.239V511.78C157.239 512.493 157.087 513.099 156.784 513.597C156.482 514.095 156.059 514.473 155.517 514.732C154.975 514.996 154.348 515.127 153.635 515.127C153.332 515.127 152.995 515.083 152.624 514.996C152.258 514.908 151.902 514.766 151.555 514.571C151.213 514.38 150.928 514.129 150.698 513.816L151.526 512.776C151.809 513.113 152.121 513.36 152.463 513.516C152.805 513.672 153.164 513.75 153.54 513.75C153.945 513.75 154.289 513.675 154.573 513.523C154.861 513.377 155.083 513.16 155.239 512.872C155.395 512.583 155.473 512.232 155.473 511.817V505.87L155.635 504.075ZM150.251 508.125V507.972C150.251 507.371 150.325 506.824 150.471 506.331C150.617 505.833 150.827 505.406 151.101 505.049C151.374 504.688 151.706 504.412 152.097 504.222C152.488 504.026 152.929 503.929 153.423 503.929C153.935 503.929 154.372 504.021 154.734 504.207C155.1 504.393 155.405 504.659 155.649 505.005C155.893 505.347 156.084 505.757 156.221 506.236C156.362 506.709 156.467 507.237 156.535 507.818V508.309C156.472 508.875 156.365 509.393 156.213 509.861C156.062 510.33 155.862 510.735 155.613 511.077C155.364 511.419 155.056 511.683 154.69 511.868C154.328 512.054 153.901 512.146 153.408 512.146C152.925 512.146 152.488 512.046 152.097 511.846C151.711 511.646 151.379 511.365 151.101 511.004C150.827 510.643 150.617 510.218 150.471 509.729C150.325 509.236 150.251 508.702 150.251 508.125ZM152.016 507.972V508.125C152.016 508.487 152.051 508.824 152.119 509.136C152.192 509.449 152.302 509.725 152.449 509.964C152.6 510.198 152.79 510.384 153.02 510.521C153.254 510.652 153.53 510.718 153.847 510.718C154.262 510.718 154.602 510.63 154.866 510.455C155.134 510.279 155.339 510.042 155.481 509.744C155.627 509.441 155.73 509.104 155.788 508.733V507.408C155.759 507.12 155.698 506.851 155.605 506.602C155.517 506.353 155.398 506.136 155.246 505.95C155.095 505.76 154.905 505.613 154.675 505.511C154.446 505.403 154.175 505.35 153.862 505.35C153.545 505.35 153.269 505.418 153.034 505.555C152.8 505.691 152.607 505.879 152.456 506.119C152.309 506.358 152.2 506.636 152.126 506.954C152.053 507.271 152.016 507.61 152.016 507.972ZM161.184 504.075V512H159.412V504.075H161.184ZM159.295 501.995C159.295 501.727 159.383 501.504 159.558 501.329C159.739 501.148 159.988 501.058 160.305 501.058C160.618 501.058 160.864 501.148 161.045 501.329C161.226 501.504 161.316 501.727 161.316 501.995C161.316 502.259 161.226 502.479 161.045 502.654C160.864 502.83 160.618 502.918 160.305 502.918C159.988 502.918 159.739 502.83 159.558 502.654C159.383 502.479 159.295 502.259 159.295 501.995ZM167.811 510.411V506.631C167.811 506.348 167.759 506.104 167.657 505.899C167.554 505.694 167.398 505.535 167.188 505.423C166.983 505.311 166.724 505.254 166.412 505.254C166.124 505.254 165.875 505.303 165.665 505.401C165.455 505.499 165.291 505.63 165.174 505.796C165.057 505.962 164.998 506.15 164.998 506.36H163.24C163.24 506.048 163.316 505.745 163.467 505.452C163.619 505.159 163.838 504.898 164.127 504.668C164.415 504.439 164.759 504.258 165.159 504.126C165.56 503.995 166.009 503.929 166.507 503.929C167.103 503.929 167.63 504.029 168.089 504.229C168.553 504.429 168.917 504.732 169.18 505.137C169.449 505.538 169.583 506.041 169.583 506.646V510.169C169.583 510.53 169.608 510.855 169.656 511.143C169.71 511.426 169.786 511.673 169.883 511.883V512H168.074C167.991 511.81 167.925 511.568 167.877 511.275C167.833 510.977 167.811 510.689 167.811 510.411ZM168.067 507.181L168.082 508.272H166.815C166.487 508.272 166.199 508.304 165.95 508.367C165.701 508.426 165.494 508.514 165.328 508.631C165.162 508.748 165.037 508.89 164.954 509.056C164.871 509.222 164.83 509.41 164.83 509.62C164.83 509.83 164.879 510.022 164.976 510.198C165.074 510.369 165.215 510.503 165.401 510.601C165.591 510.699 165.821 510.748 166.089 510.748C166.451 510.748 166.766 510.674 167.034 510.528C167.308 510.376 167.523 510.193 167.679 509.979C167.835 509.759 167.918 509.551 167.928 509.356L168.499 510.14C168.441 510.34 168.34 510.555 168.199 510.784C168.057 511.014 167.872 511.233 167.642 511.443C167.418 511.648 167.147 511.817 166.829 511.949C166.517 512.081 166.155 512.146 165.745 512.146C165.228 512.146 164.766 512.044 164.361 511.839C163.956 511.629 163.638 511.348 163.409 510.997C163.179 510.64 163.065 510.237 163.065 509.788C163.065 509.368 163.143 508.997 163.299 508.675C163.46 508.348 163.694 508.074 164.002 507.854C164.315 507.635 164.695 507.469 165.145 507.356C165.594 507.239 166.107 507.181 166.683 507.181H168.067ZM168.177 500.838L169.254 500.918C169.254 501.275 169.183 501.595 169.041 501.878C168.9 502.156 168.707 502.376 168.463 502.537C168.218 502.698 167.942 502.779 167.635 502.779C167.396 502.779 167.193 502.745 167.027 502.676C166.861 502.608 166.71 502.53 166.573 502.442C166.436 502.354 166.295 502.278 166.148 502.215C166.006 502.146 165.838 502.112 165.643 502.112C165.457 502.112 165.298 502.181 165.167 502.317C165.04 502.454 164.976 502.637 164.976 502.867L163.892 502.808C163.892 502.457 163.963 502.139 164.105 501.856C164.246 501.573 164.439 501.348 164.683 501.182C164.927 501.016 165.203 500.933 165.511 500.933C165.711 500.933 165.892 500.967 166.053 501.036C166.219 501.099 166.375 501.175 166.522 501.263C166.673 501.351 166.827 501.429 166.983 501.497C167.139 501.565 167.313 501.6 167.503 501.6C167.689 501.6 167.847 501.529 167.979 501.387C168.111 501.246 168.177 501.062 168.177 500.838ZM171.317 508.125V507.957C171.317 507.386 171.4 506.856 171.566 506.368C171.732 505.875 171.971 505.447 172.284 505.086C172.601 504.72 172.987 504.437 173.441 504.236C173.9 504.031 174.417 503.929 174.994 503.929C175.575 503.929 176.092 504.031 176.546 504.236C177.005 504.437 177.394 504.72 177.711 505.086C178.028 505.447 178.27 505.875 178.436 506.368C178.602 506.856 178.685 507.386 178.685 507.957V508.125C178.685 508.697 178.602 509.227 178.436 509.715C178.27 510.203 178.028 510.63 177.711 510.997C177.394 511.358 177.008 511.641 176.554 511.846C176.1 512.046 175.584 512.146 175.008 512.146C174.427 512.146 173.907 512.046 173.448 511.846C172.994 511.641 172.608 511.358 172.291 510.997C171.974 510.63 171.732 510.203 171.566 509.715C171.4 509.227 171.317 508.697 171.317 508.125ZM173.082 507.957V508.125C173.082 508.482 173.119 508.819 173.192 509.136C173.265 509.454 173.38 509.732 173.536 509.971C173.692 510.21 173.893 510.398 174.137 510.535C174.381 510.672 174.671 510.74 175.008 510.74C175.335 510.74 175.619 510.672 175.858 510.535C176.102 510.398 176.302 510.21 176.458 509.971C176.615 509.732 176.729 509.454 176.803 509.136C176.881 508.819 176.92 508.482 176.92 508.125V507.957C176.92 507.605 176.881 507.273 176.803 506.961C176.729 506.644 176.612 506.363 176.451 506.119C176.295 505.875 176.095 505.684 175.851 505.547C175.611 505.406 175.326 505.335 174.994 505.335C174.662 505.335 174.374 505.406 174.129 505.547C173.89 505.684 173.692 505.875 173.536 506.119C173.38 506.363 173.265 506.644 173.192 506.961C173.119 507.273 173.082 507.605 173.082 507.957ZM189.184 510.359V500.75H190.956V512H189.352L189.184 510.359ZM184.028 508.125V507.972C184.028 507.371 184.098 506.824 184.24 506.331C184.382 505.833 184.587 505.406 184.855 505.049C185.124 504.688 185.451 504.412 185.837 504.222C186.222 504.026 186.657 503.929 187.14 503.929C187.619 503.929 188.039 504.021 188.4 504.207C188.762 504.393 189.069 504.659 189.323 505.005C189.577 505.347 189.78 505.757 189.931 506.236C190.082 506.709 190.19 507.237 190.253 507.818V508.309C190.19 508.875 190.082 509.393 189.931 509.861C189.78 510.33 189.577 510.735 189.323 511.077C189.069 511.419 188.759 511.683 188.393 511.868C188.032 512.054 187.609 512.146 187.126 512.146C186.647 512.146 186.215 512.046 185.829 511.846C185.449 511.646 185.124 511.365 184.855 511.004C184.587 510.643 184.382 510.218 184.24 509.729C184.098 509.236 184.028 508.702 184.028 508.125ZM185.793 507.972V508.125C185.793 508.487 185.825 508.824 185.888 509.136C185.956 509.449 186.061 509.725 186.203 509.964C186.345 510.198 186.528 510.384 186.752 510.521C186.982 510.652 187.255 510.718 187.573 510.718C187.973 510.718 188.303 510.63 188.561 510.455C188.82 510.279 189.023 510.042 189.169 509.744C189.321 509.441 189.423 509.104 189.477 508.733V507.408C189.448 507.12 189.387 506.851 189.294 506.602C189.206 506.353 189.086 506.136 188.935 505.95C188.783 505.76 188.596 505.613 188.371 505.511C188.151 505.403 187.89 505.35 187.587 505.35C187.265 505.35 186.992 505.418 186.767 505.555C186.542 505.691 186.357 505.879 186.21 506.119C186.069 506.358 185.964 506.636 185.895 506.954C185.827 507.271 185.793 507.61 185.793 507.972ZM196.521 512.146C195.935 512.146 195.405 512.051 194.931 511.861C194.463 511.666 194.062 511.395 193.73 511.048C193.403 510.701 193.152 510.293 192.976 509.825C192.8 509.356 192.712 508.851 192.712 508.309V508.016C192.712 507.396 192.802 506.834 192.983 506.331C193.164 505.828 193.415 505.398 193.738 505.042C194.06 504.681 194.441 504.405 194.88 504.214C195.32 504.024 195.796 503.929 196.308 503.929C196.875 503.929 197.37 504.024 197.795 504.214C198.22 504.405 198.571 504.673 198.85 505.02C199.133 505.362 199.343 505.77 199.48 506.243C199.621 506.717 199.692 507.239 199.692 507.811V508.565H193.569V507.298H197.949V507.159C197.939 506.841 197.876 506.543 197.758 506.265C197.646 505.987 197.473 505.762 197.238 505.591C197.004 505.42 196.692 505.335 196.301 505.335C196.008 505.335 195.747 505.398 195.517 505.525C195.293 505.647 195.105 505.826 194.953 506.06C194.802 506.294 194.685 506.578 194.602 506.91C194.524 507.237 194.485 507.605 194.485 508.016V508.309C194.485 508.655 194.531 508.978 194.624 509.275C194.721 509.568 194.863 509.825 195.049 510.044C195.234 510.264 195.459 510.438 195.722 510.564C195.986 510.687 196.286 510.748 196.623 510.748C197.048 510.748 197.426 510.662 197.758 510.491C198.091 510.32 198.379 510.079 198.623 509.766L199.553 510.667C199.382 510.916 199.16 511.155 198.886 511.385C198.613 511.609 198.279 511.792 197.883 511.934C197.492 512.076 197.038 512.146 196.521 512.146ZM205.74 509.854C205.74 509.678 205.696 509.52 205.608 509.378C205.52 509.231 205.352 509.1 205.103 508.982C204.858 508.865 204.497 508.758 204.019 508.66C203.599 508.567 203.213 508.458 202.861 508.331C202.515 508.199 202.217 508.04 201.968 507.854C201.719 507.669 201.526 507.449 201.389 507.195C201.253 506.941 201.184 506.648 201.184 506.316C201.184 505.994 201.255 505.689 201.397 505.401C201.538 505.113 201.741 504.859 202.004 504.639C202.268 504.419 202.588 504.246 202.964 504.119C203.345 503.992 203.77 503.929 204.238 503.929C204.902 503.929 205.471 504.041 205.945 504.266C206.423 504.485 206.79 504.786 207.044 505.167C207.297 505.542 207.424 505.967 207.424 506.441H205.659C205.659 506.231 205.606 506.036 205.498 505.855C205.396 505.669 205.239 505.521 205.029 505.408C204.819 505.291 204.556 505.232 204.238 505.232C203.936 505.232 203.684 505.281 203.484 505.379C203.289 505.472 203.142 505.594 203.045 505.745C202.952 505.896 202.905 506.062 202.905 506.243C202.905 506.375 202.93 506.495 202.979 506.602C203.032 506.705 203.12 506.8 203.242 506.888C203.364 506.971 203.53 507.049 203.74 507.122C203.955 507.195 204.224 507.266 204.546 507.334C205.151 507.461 205.671 507.625 206.106 507.825C206.546 508.021 206.882 508.274 207.117 508.587C207.351 508.895 207.468 509.285 207.468 509.759C207.468 510.11 207.393 510.433 207.241 510.726C207.095 511.014 206.88 511.265 206.597 511.48C206.314 511.69 205.974 511.854 205.579 511.971C205.188 512.088 204.749 512.146 204.26 512.146C203.543 512.146 202.935 512.02 202.437 511.766C201.939 511.507 201.56 511.177 201.301 510.777C201.047 510.372 200.921 509.952 200.921 509.517H202.627C202.647 509.844 202.737 510.105 202.898 510.301C203.064 510.491 203.269 510.63 203.513 510.718C203.762 510.801 204.019 510.843 204.282 510.843C204.6 510.843 204.866 510.801 205.081 510.718C205.296 510.63 205.459 510.513 205.571 510.367C205.684 510.215 205.74 510.044 205.74 509.854ZM212.872 504.075V505.364H208.404V504.075H212.872ZM209.693 502.134H211.458V509.81C211.458 510.054 211.492 510.242 211.561 510.374C211.634 510.501 211.734 510.586 211.861 510.63C211.988 510.674 212.137 510.696 212.308 510.696C212.43 510.696 212.547 510.689 212.659 510.674C212.771 510.66 212.862 510.645 212.93 510.63L212.938 511.978C212.791 512.022 212.62 512.061 212.425 512.095C212.234 512.129 212.015 512.146 211.766 512.146C211.36 512.146 211.001 512.076 210.689 511.934C210.376 511.788 210.132 511.551 209.957 511.224C209.781 510.896 209.693 510.462 209.693 509.92V502.134ZM218.927 510.411V506.631C218.927 506.348 218.875 506.104 218.773 505.899C218.67 505.694 218.514 505.535 218.304 505.423C218.099 505.311 217.84 505.254 217.528 505.254C217.24 505.254 216.991 505.303 216.781 505.401C216.571 505.499 216.407 505.63 216.29 505.796C216.173 505.962 216.114 506.15 216.114 506.36H214.356C214.356 506.048 214.432 505.745 214.583 505.452C214.735 505.159 214.954 504.898 215.243 504.668C215.531 504.439 215.875 504.258 216.275 504.126C216.676 503.995 217.125 503.929 217.623 503.929C218.219 503.929 218.746 504.029 219.205 504.229C219.669 504.429 220.033 504.732 220.296 505.137C220.565 505.538 220.699 506.041 220.699 506.646V510.169C220.699 510.53 220.724 510.855 220.772 511.143C220.826 511.426 220.902 511.673 220.999 511.883V512H219.19C219.107 511.81 219.041 511.568 218.993 511.275C218.949 510.977 218.927 510.689 218.927 510.411ZM219.183 507.181L219.198 508.272H217.931C217.603 508.272 217.315 508.304 217.066 508.367C216.817 508.426 216.61 508.514 216.444 508.631C216.278 508.748 216.153 508.89 216.07 509.056C215.987 509.222 215.946 509.41 215.946 509.62C215.946 509.83 215.995 510.022 216.092 510.198C216.19 510.369 216.331 510.503 216.517 510.601C216.707 510.699 216.937 510.748 217.205 510.748C217.567 510.748 217.882 510.674 218.15 510.528C218.424 510.376 218.639 510.193 218.795 509.979C218.951 509.759 219.034 509.551 219.044 509.356L219.615 510.14C219.557 510.34 219.456 510.555 219.315 510.784C219.173 511.014 218.988 511.233 218.758 511.443C218.534 511.648 218.263 511.817 217.945 511.949C217.633 512.081 217.271 512.146 216.861 512.146C216.344 512.146 215.882 512.044 215.477 511.839C215.072 511.629 214.754 511.348 214.525 510.997C214.295 510.64 214.181 510.237 214.181 509.788C214.181 509.368 214.259 508.997 214.415 508.675C214.576 508.348 214.81 508.074 215.118 507.854C215.431 507.635 215.811 507.469 216.261 507.356C216.71 507.239 217.223 507.181 217.799 507.181H219.183ZM226.007 510.74C226.295 510.74 226.554 510.684 226.783 510.572C227.018 510.455 227.206 510.293 227.347 510.088C227.494 509.883 227.575 509.646 227.589 509.378H229.252C229.242 509.891 229.091 510.357 228.798 510.777C228.505 511.197 228.117 511.531 227.633 511.78C227.15 512.024 226.615 512.146 226.029 512.146C225.424 512.146 224.896 512.044 224.447 511.839C223.998 511.629 223.624 511.341 223.326 510.975C223.029 510.608 222.804 510.186 222.653 509.708C222.506 509.229 222.433 508.716 222.433 508.169V507.913C222.433 507.366 222.506 506.854 222.653 506.375C222.804 505.892 223.029 505.467 223.326 505.101C223.624 504.734 223.998 504.449 224.447 504.244C224.896 504.034 225.421 503.929 226.022 503.929C226.657 503.929 227.213 504.056 227.692 504.31C228.17 504.559 228.546 504.908 228.82 505.357C229.098 505.801 229.242 506.319 229.252 506.91H227.589C227.575 506.617 227.501 506.353 227.369 506.119C227.242 505.879 227.062 505.689 226.827 505.547C226.598 505.406 226.322 505.335 226 505.335C225.643 505.335 225.348 505.408 225.114 505.555C224.879 505.696 224.696 505.892 224.564 506.141C224.432 506.385 224.337 506.661 224.279 506.968C224.225 507.271 224.198 507.586 224.198 507.913V508.169C224.198 508.497 224.225 508.814 224.279 509.122C224.332 509.429 224.425 509.705 224.557 509.949C224.694 510.188 224.879 510.381 225.114 510.528C225.348 510.669 225.646 510.74 226.007 510.74ZM235.3 510.411V506.631C235.3 506.348 235.248 506.104 235.146 505.899C235.043 505.694 234.887 505.535 234.677 505.423C234.472 505.311 234.213 505.254 233.901 505.254C233.613 505.254 233.363 505.303 233.154 505.401C232.944 505.499 232.78 505.63 232.663 505.796C232.546 505.962 232.487 506.15 232.487 506.36H230.729C230.729 506.048 230.805 505.745 230.956 505.452C231.108 505.159 231.327 504.898 231.615 504.668C231.904 504.439 232.248 504.258 232.648 504.126C233.049 503.995 233.498 503.929 233.996 503.929C234.592 503.929 235.119 504.029 235.578 504.229C236.042 504.429 236.405 504.732 236.669 505.137C236.938 505.538 237.072 506.041 237.072 506.646V510.169C237.072 510.53 237.096 510.855 237.145 511.143C237.199 511.426 237.275 511.673 237.372 511.883V512H235.563C235.48 511.81 235.414 511.568 235.365 511.275C235.321 510.977 235.3 510.689 235.3 510.411ZM235.556 507.181L235.571 508.272H234.303C233.976 508.272 233.688 508.304 233.439 508.367C233.19 508.426 232.983 508.514 232.817 508.631C232.651 508.748 232.526 508.89 232.443 509.056C232.36 509.222 232.319 509.41 232.319 509.62C232.319 509.83 232.367 510.022 232.465 510.198C232.563 510.369 232.704 510.503 232.89 510.601C233.08 510.699 233.31 510.748 233.578 510.748C233.94 510.748 234.255 510.674 234.523 510.528C234.797 510.376 235.011 510.193 235.168 509.979C235.324 509.759 235.407 509.551 235.417 509.356L235.988 510.14C235.929 510.34 235.829 510.555 235.688 510.784C235.546 511.014 235.361 511.233 235.131 511.443C234.906 511.648 234.635 511.817 234.318 511.949C234.006 512.081 233.644 512.146 233.234 512.146C232.717 512.146 232.255 512.044 231.85 511.839C231.445 511.629 231.127 511.348 230.898 510.997C230.668 510.64 230.553 510.237 230.553 509.788C230.553 509.368 230.632 508.997 230.788 508.675C230.949 508.348 231.183 508.074 231.491 507.854C231.803 507.635 232.184 507.469 232.633 507.356C233.083 507.239 233.595 507.181 234.172 507.181H235.556ZM243.977 510.359V500.75H245.749V512H244.145L243.977 510.359ZM238.82 508.125V507.972C238.82 507.371 238.891 506.824 239.033 506.331C239.174 505.833 239.379 505.406 239.648 505.049C239.917 504.688 240.244 504.412 240.629 504.222C241.015 504.026 241.45 503.929 241.933 503.929C242.412 503.929 242.832 504.021 243.193 504.207C243.554 504.393 243.862 504.659 244.116 505.005C244.37 505.347 244.572 505.757 244.724 506.236C244.875 506.709 244.983 507.237 245.046 507.818V508.309C244.983 508.875 244.875 509.393 244.724 509.861C244.572 510.33 244.37 510.735 244.116 511.077C243.862 511.419 243.552 511.683 243.186 511.868C242.824 512.054 242.402 512.146 241.919 512.146C241.44 512.146 241.008 512.046 240.622 511.846C240.241 511.646 239.917 511.365 239.648 511.004C239.379 510.643 239.174 510.218 239.033 509.729C238.891 509.236 238.82 508.702 238.82 508.125ZM240.586 507.972V508.125C240.586 508.487 240.617 508.824 240.681 509.136C240.749 509.449 240.854 509.725 240.996 509.964C241.137 510.198 241.32 510.384 241.545 510.521C241.775 510.652 242.048 510.718 242.365 510.718C242.766 510.718 243.095 510.63 243.354 510.455C243.613 510.279 243.816 510.042 243.962 509.744C244.113 509.441 244.216 509.104 244.27 508.733V507.408C244.24 507.12 244.179 506.851 244.087 506.602C243.999 506.353 243.879 506.136 243.728 505.95C243.576 505.76 243.388 505.613 243.164 505.511C242.944 505.403 242.683 505.35 242.38 505.35C242.058 505.35 241.784 505.418 241.56 505.555C241.335 505.691 241.15 505.879 241.003 506.119C240.861 506.358 240.756 506.636 240.688 506.954C240.62 507.271 240.586 507.61 240.586 507.972ZM252.288 510.411V506.631C252.288 506.348 252.236 506.104 252.134 505.899C252.031 505.694 251.875 505.535 251.665 505.423C251.46 505.311 251.201 505.254 250.889 505.254C250.601 505.254 250.352 505.303 250.142 505.401C249.932 505.499 249.768 505.63 249.651 505.796C249.534 505.962 249.475 506.15 249.475 506.36H247.717C247.717 506.048 247.793 505.745 247.944 505.452C248.096 505.159 248.315 504.898 248.604 504.668C248.892 504.439 249.236 504.258 249.636 504.126C250.037 503.995 250.486 503.929 250.984 503.929C251.58 503.929 252.107 504.029 252.566 504.229C253.03 504.429 253.394 504.732 253.657 505.137C253.926 505.538 254.06 506.041 254.06 506.646V510.169C254.06 510.53 254.084 510.855 254.133 511.143C254.187 511.426 254.263 511.673 254.36 511.883V512H252.551C252.468 511.81 252.402 511.568 252.354 511.275C252.31 510.977 252.288 510.689 252.288 510.411ZM252.544 507.181L252.559 508.272H251.292C250.964 508.272 250.676 508.304 250.427 508.367C250.178 508.426 249.971 508.514 249.805 508.631C249.639 508.748 249.514 508.89 249.431 509.056C249.348 509.222 249.307 509.41 249.307 509.62C249.307 509.83 249.355 510.022 249.453 510.198C249.551 510.369 249.692 510.503 249.878 510.601C250.068 510.699 250.298 510.748 250.566 510.748C250.928 510.748 251.243 510.674 251.511 510.528C251.785 510.376 252 510.193 252.156 509.979C252.312 509.759 252.395 509.551 252.405 509.356L252.976 510.14C252.917 510.34 252.817 510.555 252.676 510.784C252.534 511.014 252.349 511.233 252.119 511.443C251.895 511.648 251.624 511.817 251.306 511.949C250.994 512.081 250.632 512.146 250.222 512.146C249.705 512.146 249.243 512.044 248.838 511.839C248.433 511.629 248.115 511.348 247.886 510.997C247.656 510.64 247.542 510.237 247.542 509.788C247.542 509.368 247.62 508.997 247.776 508.675C247.937 508.348 248.171 508.074 248.479 507.854C248.792 507.635 249.172 507.469 249.622 507.356C250.071 507.239 250.583 507.181 251.16 507.181H252.544Z" fill="white"/>
</svg>
