<svg version="1.2" xmlns="http://www.w3.org/2000/svg" viewBox="0 0 1450 548" width="1450" height="548">
	<title>cuidar verde_Prancheta 1 cópia 2(1)-svg</title>
	<defs>
		<clipPath clipPathUnits="userSpaceOnUse" id="cp1">
			<path d="m863.9 53.2h432.8v432.8h-432.8z"/>
		</clipPath>
		<clipPath clipPathUnits="userSpaceOnUse" id="cp2">
			<path d="m854.2 48.4h432.8v432.8h-432.8z"/>
		</clipPath>
	</defs>
	<style>
		.s0 { fill: #153722 } 
		.s1 { fill: #1a4d2e } 
		.s2 { fill: #037c44 } 
	</style>
	<g id="Clip-Path" clip-path="url(#cp1)">
		<g>
			<path class="s0" d="m1155.6 53.2c0 0 38.2 93.5-125.6 156.4-89 34.1-157.4 121.6-75.8 256.7 6.8-60.4 35.8-193.6 160.4-224 0 0-116 43.4-126.3 239.8 59.6 8.4 199.5 14 241-107.4 54.8-160.3-73.7-321.6-73.7-321.6z"/>
			<path class="s1" d="m988.4 481.4c126.6-50.5 218.7-168.9 231.4-310.2-25.9-69.8-64.2-118-64.2-118 0 0 38.2 93.5-125.6 156.4-89 34.1-157.4 121.6-75.8 256.7 6.8-60.4 35.8-193.6 160.4-224 0 0-115.7 43.3-126.2 239z"/>
			<path class="s0" d="m941.5 212.7c6.5 0 11.8-5.3 11.8-11.8 0-6.5-5.3-11.8-11.8-11.8-6.5 0-11.8 5.3-11.8 11.8 0 6.5 5.3 11.8 11.8 11.8z"/>
			<path class="s0" d="m978.7 197.5c4.7 0 8.5-3.8 8.5-8.5 0-4.7-3.8-8.5-8.5-8.5-4.7 0-8.5 3.8-8.5 8.5 0 4.7 3.8 8.5 8.5 8.5z"/>
			<path class="s0" d="m971.1 129.9c11.7 0 21.1-9.5 21.1-21.1 0-11.6-9.5-21.1-21.1-21.1-11.6 0-21.1 9.5-21.1 21.1 0 11.6 9.5 21.1 21.1 21.1z"/>
			<path class="s0" d="m1036.2 163.7c3.7 0 6.8-3 6.8-6.8 0-3.8-3-6.8-6.8-6.8-3.7 0-6.8 3-6.8 6.8 0 3.8 3 6.8 6.8 6.8z"/>
			<path class="s0" d="m1092.8 138.3c10.7 0 19.4-8.7 19.4-19.4 0-10.7-8.7-19.4-19.4-19.4-10.7 0-19.4 8.7-19.4 19.4 0 10.7 8.7 19.4 19.4 19.4z"/>
			<g id="Clip-Path" clip-path="url(#cp2)">
				<g>
					<path class="s2" d="m978.7 476.5c126.6-50.5 218.7-168.9 231.4-310.2-25.9-69.8-64.2-118-64.2-118 0 0 38.2 93.5-125.6 156.4-89 34.1-157.4 121.6-75.8 256.7 6.8-60.4 35.8-193.6 160.4-224 0 0-115.7 43.3-126.2 239z"/>
					<path class="s2" d="m931.9 207.9c6.5 0 11.8-5.3 11.8-11.8 0-6.5-5.3-11.8-11.8-11.8-6.5 0-11.8 5.3-11.8 11.8 0 6.5 5.3 11.8 11.8 11.8z"/>
					<path class="s2" d="m969 192.7c4.7 0 8.5-3.8 8.5-8.5 0-4.7-3.8-8.5-8.5-8.5-4.7 0-8.5 3.8-8.5 8.5 0 4.7 3.8 8.5 8.5 8.5z"/>
					<path class="s2" d="m961.4 125c11.7 0 21.1-9.5 21.1-21.1 0-11.6-9.5-21.1-21.1-21.1-11.7 0-21.1 9.5-21.1 21.1 0 11.6 9.5 21.1 21.1 21.1z"/>
					<path class="s2" d="m1026.5 158.9c3.7 0 6.8-3 6.8-6.8 0-3.8-3-6.8-6.8-6.8-3.8 0-6.8 3-6.8 6.8 0 3.8 3 6.8 6.8 6.8z"/>
					<path class="s2" d="m1083.2 133.5c10.7 0 19.4-8.7 19.4-19.4 0-10.7-8.7-19.4-19.4-19.4-10.7 0-19.4 8.7-19.4 19.4 0 10.7 8.7 19.4 19.4 19.4z"/>
				</g>
			</g>
		</g>
	</g>
	<path class="s2" d="m166.6 182.4v-0.5c0-47.8 35.8-87 86.5-87 50.7 0 50 10.8 66.1 26.2l-19 21.9c-13.7-12.5-27.9-20.7-47.3-20.7-31.7 0-55.3 26.2-55.3 59.1v0.5c0 32.9 23.3 59.6 55.5 59.6 32.2 0 33.9-8.2 48.3-21.6l19 19.2c-17.1 18.5-37 29.8-68.2 29.8-49 0-85.5-38.2-85.5-86.5z"/>
	<path class="s2" d="m332.9 219.9v-80.7h29.1v72.1c0 19.9 9.9 30.8 27.2 30.8 17.3 0 28.6-11.3 28.6-31.2v-71.6h29.3v126.9h-29.3v-19.7c-8.4 12.3-20.2 22.3-39.6 22.3-28.8 0-45.2-19-45.2-48.8z"/>
	<path class="s2" d="m469.9 92.1h31.2v27.6h-31.2zm0.9 47.1h29.3v126.9h-29.3z"/>
	<path fill-rule="evenodd" class="s2" d="m517.7 202.4c0-42.3 28.6-65.8 58.9-65.8 30.3 0 34.4 10.3 43.2 22.3v-68.2h29.1v175.4h-29.1v-21.1c-9.4 13.2-22.8 23.8-43.2 23.8-29.8 0-58.9-23.5-58.9-65.8zm102.6 0.5v-0.5c0-24.5-17.3-40.6-36.8-40.6-19.5 0-36.5 15.6-36.5 40.6v0.5c0 24.5 16.6 40.6 36.5 40.6 19.9 0 36.8-16.3 36.8-40.6z"/>
	<path fill-rule="evenodd" class="s2" d="m662.8 229.5v-0.5c0-27.6 21.6-40.8 52.6-40.8 31 0 24.3 2.2 34.1 5.3v-3.1c0-18.3-11.1-27.6-31.5-27.6-20.4 0-24.7 3.1-36.3 7.9l-7.9-22.8c14.2-6 27.9-10.3 48.1-10.3 20.2 0 32.9 4.8 42 14.2 9.4 9.4 13.7 22.6 13.7 39.2v75.2h-28.4v-15.9c-8.7 10.3-21.9 18.5-41.3 18.5-19.4 0-45.2-13.5-45.2-39.2zm87.2-17.8c-7.4-2.9-17.3-5-28.8-5-19 0-29.8 7.7-29.8 21.1v0.5c0 12.3 10.6 19.2 24.7 19.2 14.1 0 33.9-10.8 33.9-27.2z"/>
	<path class="s2" d="m798.3 139.2h29.3v28.6c7.9-19.2 22.6-32 44.9-31v30.8h-1.7c-25.7 0-43.3 16.6-43.3 50.2v48.3h-29.3v-126.9z"/>
	<path class="s0" d="m164 285.3h67.1l34.8 100.6 34.8-100.6h66l-72.7 180.5h-57.3z"/>
	<path fill-rule="evenodd" class="s0" d="m332.9 395.4v-0.5c0-41.7 30-73.5 71.9-73.5 41.9 0 72.7 34.6 72.7 77.1 0 42.5 0 6.7-0.3 9.7h-89.9c4.1 12.3 13.8 18.7 26.4 18.7 12.6 0 19.2-4.9 28.4-14.3l31.2 24.8c-14.1 18.2-33.3 30.5-63.7 30.5-46.1 0-76.8-28.9-76.8-72.4zm91.7-12.8c-1.3-13.3-9.2-21-19.5-21-10.3 0-16.6 7.9-18.4 21z"/>
	<path class="s0" d="m475.5 324.7h58.1v28.2c7.9-18.7 20.5-31.2 43.8-30.2v61.7h-6.1c-24.6 0-37.6 13.6-37.6 44.5v35.6h-58.1v-139.8z"/>
	<path fill-rule="evenodd" class="s0" d="m565.9 395.7v-0.5c0-44.3 26.9-73.7 59.6-73.7 32.7 0 33 9.2 42 19.2v-63h58.1v186.9h-58.1v-17.2c-9.5 10.2-20.2 20.5-41.5 20.5-33.8 0-60.2-29.4-60.2-72.2zm102.9-0.8v-0.5c0-13.8-10-25.1-23.3-25.1-13.3 0-23.3 10.8-23.3 25.1v0.5c0 14.3 10 25.1 23.3 25.1 13.3 0 23.3-10.8 23.3-25.1z"/>
	<path fill-rule="evenodd" class="s0" d="m723.8 395.4v-0.5c0-41.7 30-73.5 71.9-73.5 41.9 0 72.7 34.6 72.7 77.1 0 42.5 0 6.7-0.3 9.7h-89.9c4.1 12.3 13.8 18.7 26.4 18.7 12.6 0 19.2-4.9 28.4-14.3l31.2 24.8c-14.1 18.2-33.3 30.5-63.7 30.5-46.1 0-76.8-28.9-76.8-72.4zm91.7-12.8c-1.3-13.3-9.2-21-19.5-21-10.3 0-16.6 7.9-18.4 21z"/>
</svg>