<svg width="530" height="530" viewBox="0 0 530 530" fill="none" xmlns="http://www.w3.org/2000/svg">
<g clip-path="url(#clip0_175_261)">
<path d="M357.211 0C357.211 0 404.033 114.546 203.363 191.486C94.3238 233.282 10.575 340.408 110.571 505.891C118.852 431.923 154.362 268.833 307.051 231.617C307.051 231.617 164.937 284.757 152.383 525.302C225.407 535.555 396.67 542.444 447.518 393.821C514.662 197.457 357.211 0 357.211 0Z" fill="#123620"/>
<path d="M152.45 524.301C307.474 462.431 420.272 317.495 435.841 144.474C404.149 58.9868 357.211 0 357.211 0C357.211 0 404.033 114.546 203.363 191.486C94.3238 233.282 10.575 340.408 110.571 505.891C118.852 431.923 154.362 268.833 307.051 231.617C307.043 231.618 165.351 284.626 152.45 524.301Z" fill="#1A4D2E"/>
<path d="M95.1016 195.305C103.106 195.305 109.594 188.816 109.594 180.812C109.594 172.808 103.106 166.32 95.1016 166.32C87.0979 166.32 80.6094 172.808 80.6094 180.812C80.6094 188.816 87.0979 195.305 95.1016 195.305Z" fill="#123620"/>
<path d="M140.648 176.671C146.365 176.671 150.999 172.037 150.999 166.32C150.999 160.603 146.365 155.968 140.648 155.968C134.931 155.968 130.297 160.603 130.297 166.32C130.297 172.037 134.931 176.671 140.648 176.671Z" fill="#123620"/>
<path d="M131.333 93.859C145.625 93.859 157.211 82.2732 157.211 67.9811C157.211 53.6886 145.625 42.1025 131.333 42.1025C117.041 42.1025 105.454 53.6886 105.454 67.9811C105.454 82.2732 117.041 93.859 131.333 93.859Z" fill="#123620"/>
<path d="M211.039 135.266C215.612 135.266 219.32 131.558 219.32 126.985C219.32 122.411 215.612 118.703 211.039 118.703C206.465 118.703 202.757 122.411 202.757 126.985C202.757 131.558 206.465 135.266 211.039 135.266Z" fill="#123620"/>
<path d="M280.402 104.211C293.552 104.211 304.211 93.551 304.211 80.4023C304.211 67.253 293.552 56.5939 280.402 56.5939C267.254 56.5939 256.594 67.253 256.594 80.4023C256.594 93.551 267.254 104.211 280.402 104.211Z" fill="#123620"/>
<g clip-path="url(#clip1_175_261)">
<path d="M140.606 518.379C295.63 456.509 408.429 311.573 423.997 138.552C392.305 53.065 345.367 -5.92181 345.367 -5.92181C345.367 -5.92181 392.189 108.624 191.52 185.565C82.48 227.36 -1.26877 334.486 98.7272 499.969C107.008 426.001 142.518 262.911 295.207 225.695C295.199 225.696 153.507 278.704 140.606 518.379Z" fill="#057B44"/>
<path d="M83.2578 189.383C91.2621 189.383 97.7507 182.895 97.7507 174.89C97.7507 166.887 91.2621 160.398 83.2578 160.398C75.2541 160.398 68.7656 166.887 68.7656 174.89C68.7656 182.895 75.2541 189.383 83.2578 189.383Z" fill="#057B44"/>
<path d="M128.805 170.749C134.521 170.749 139.156 166.115 139.156 160.398C139.156 154.681 134.521 150.047 128.805 150.047C123.087 150.047 118.453 154.681 118.453 160.398C118.453 166.115 123.087 170.749 128.805 170.749Z" fill="#057B44"/>
<path d="M119.489 87.9372C133.781 87.9372 145.368 76.3514 145.368 62.0593C145.368 47.7668 133.781 36.1807 119.489 36.1807C105.197 36.1807 93.6104 47.7668 93.6104 62.0593C93.6104 76.3514 105.197 87.9372 119.489 87.9372Z" fill="#057B44"/>
<path d="M199.195 129.344C203.769 129.344 207.477 125.636 207.477 121.063C207.477 116.489 203.769 112.782 199.195 112.782C194.622 112.782 190.914 116.489 190.914 121.063C190.914 125.636 194.622 129.344 199.195 129.344Z" fill="#057B44"/>
<path d="M268.559 98.2888C281.708 98.2888 292.367 87.6292 292.367 74.4805C292.367 61.3312 281.708 50.6721 268.559 50.6721C255.41 50.6721 244.75 61.3312 244.75 74.4805C244.75 87.6292 255.41 98.2888 268.559 98.2888Z" fill="#057B44"/>
</g>
</g>
<defs>
<clipPath id="clip0_175_261">
<rect width="530" height="530" fill="white"/>
</clipPath>
<clipPath id="clip1_175_261">
<rect width="530" height="530" fill="white" transform="translate(-11.8438 -5.92181)"/>
</clipPath>
</defs>
</svg>
